G04 #@! TF.FileFunction,Copper,L2,Bot,Signal*
%FSLAX46Y46*%
G04 Gerber Fmt 4.6, Leading zero omitted, Abs format (unit mm)*
G04 Created by KiCad (PCBNEW 4.0.6) date 08/07/17 19:53:01*
%MOMM*%
%LPD*%
G01*
G04 APERTURE LIST*
%ADD10C,0.100000*%
%ADD11R,1.450000X0.450000*%
%ADD12R,1.270000X0.533400*%
%ADD13R,0.533400X1.270000*%
%ADD14R,1.200000X0.750000*%
%ADD15R,0.900000X1.200000*%
%ADD16C,16.000000*%
%ADD17R,0.998220X0.899160*%
%ADD18R,0.750000X1.200000*%
%ADD19R,1.597660X1.399540*%
%ADD20R,1.200000X0.900000*%
%ADD21R,1.549400X0.599440*%
%ADD22R,1.798320X1.198880*%
%ADD23R,0.500000X0.900000*%
%ADD24R,0.900000X0.500000*%
%ADD25C,1.305560*%
%ADD26C,0.812800*%
%ADD27C,0.685800*%
%ADD28C,0.304800*%
%ADD29C,0.254000*%
G04 APERTURE END LIST*
D10*
D11*
X161223600Y-114622600D03*
X161223600Y-113972600D03*
X161223600Y-113322600D03*
X161223600Y-112672600D03*
X165623600Y-112672600D03*
X165623600Y-113322600D03*
X165623600Y-113972600D03*
X165623600Y-114622600D03*
D12*
X159334200Y-104153080D03*
X159334200Y-103352980D03*
X159334200Y-102552880D03*
X159334200Y-101752780D03*
X159334200Y-100955220D03*
X159334200Y-100155120D03*
X159334200Y-99355020D03*
X159334200Y-98554920D03*
D13*
X160827720Y-97061400D03*
X161627820Y-97061400D03*
X162427920Y-97061400D03*
X163228020Y-97061400D03*
X164025580Y-97061400D03*
X164825680Y-97061400D03*
X165625780Y-97061400D03*
X166425880Y-97061400D03*
D12*
X167916860Y-98554920D03*
X167916860Y-99355020D03*
X167916860Y-100155120D03*
X167916860Y-100955220D03*
X167916860Y-101752780D03*
X167916860Y-102552880D03*
X167916860Y-103352980D03*
X167916860Y-104153080D03*
D13*
X166425880Y-105644060D03*
X165625780Y-105644060D03*
X164825680Y-105644060D03*
X164025580Y-105644060D03*
X163228020Y-105644060D03*
X162427920Y-105644060D03*
X161627820Y-105644060D03*
X160827720Y-105644060D03*
D14*
X161884400Y-110802800D03*
X159984400Y-110802800D03*
D15*
X136474200Y-120218400D03*
X136474200Y-122418400D03*
D16*
X148488400Y-105087800D03*
D15*
X156667200Y-91278000D03*
X156667200Y-89078000D03*
D17*
X160510220Y-87411940D03*
X158513780Y-87411940D03*
X159512000Y-84816060D03*
D18*
X156870400Y-85062400D03*
X156870400Y-86962400D03*
D19*
X143129000Y-120071260D03*
X143129000Y-122870340D03*
X140360400Y-120122060D03*
X140360400Y-122921140D03*
D20*
X162425200Y-108262800D03*
X164625200Y-108262800D03*
X158513600Y-89060400D03*
X160713600Y-89060400D03*
X147607200Y-115070000D03*
X145407200Y-115070000D03*
X151671200Y-115070000D03*
X149471200Y-115070000D03*
D21*
X146839940Y-87409400D03*
X146839940Y-88410160D03*
X146839940Y-89410920D03*
X146839940Y-90409140D03*
X146839940Y-91407360D03*
X146839940Y-92408120D03*
D22*
X149062440Y-86111460D03*
X149062440Y-93708600D03*
D18*
X138226800Y-120368400D03*
X138226800Y-122268400D03*
D14*
X164424400Y-116340000D03*
X162524400Y-116340000D03*
D23*
X159500000Y-114587400D03*
X158000000Y-114587400D03*
X159500000Y-112885600D03*
X158000000Y-112885600D03*
D24*
X163525200Y-109494000D03*
X163525200Y-110994000D03*
X165049200Y-109494000D03*
X165049200Y-110994000D03*
D25*
X146970000Y-120470000D03*
X146970000Y-122468980D03*
X148968980Y-120470000D03*
X148968980Y-122468980D03*
X150967960Y-120470000D03*
X150967960Y-122468980D03*
X152969480Y-120470000D03*
X152969480Y-122468980D03*
X154968460Y-120470000D03*
X154968460Y-122468980D03*
X156969980Y-120470000D03*
X156969980Y-122468980D03*
X158968960Y-120470000D03*
X158968960Y-122468980D03*
D26*
X159613600Y-92362400D03*
X149504400Y-116289200D03*
X148590000Y-87536400D03*
X151231600Y-85961600D03*
X152958800Y-118321200D03*
X166928800Y-115070000D03*
X166370000Y-101752780D03*
X161874200Y-101227000D03*
X138176000Y-124010800D03*
X139496800Y-118168800D03*
X152247600Y-92870400D03*
X155549600Y-94089600D03*
X166319200Y-110091600D03*
X163322000Y-114663600D03*
X164203380Y-99355020D03*
X161137600Y-99830000D03*
D27*
X159105600Y-107754800D03*
X148488400Y-90330400D03*
X161645600Y-95461200D03*
X162915600Y-99118800D03*
X162001200Y-102827200D03*
X162644000Y-91278000D03*
X155905200Y-90940000D03*
X151384000Y-88044400D03*
X165963600Y-95715200D03*
X167233600Y-95969200D03*
X152196800Y-86672800D03*
X163576000Y-98356800D03*
X159258000Y-96121600D03*
X150571200Y-89517600D03*
X158445200Y-106383200D03*
X166471600Y-100693600D03*
X144068800Y-115273200D03*
X152806400Y-115171600D03*
X166776400Y-111310800D03*
X165150800Y-103944800D03*
X155498800Y-91803600D03*
X162610800Y-112682400D03*
X162153600Y-98356800D03*
X154736800Y-111260000D03*
X167030400Y-113038000D03*
D28*
X159512000Y-88146000D02*
X159512000Y-84816060D01*
X159613600Y-88247600D02*
X159512000Y-88146000D01*
X159613600Y-92362400D02*
X159613600Y-88247600D01*
X156870400Y-85062400D02*
X159265660Y-85062400D01*
X159265660Y-85062400D02*
X159512000Y-84816060D01*
X159562800Y-84866860D02*
X159512000Y-84816060D01*
X159512000Y-84816060D02*
X159512000Y-84945600D01*
X159265660Y-85062400D02*
X159512000Y-84816060D01*
X165623600Y-114622600D02*
X164398600Y-114622600D01*
X160898800Y-111717200D02*
X159984400Y-110802800D01*
X162966400Y-111717200D02*
X160898800Y-111717200D01*
X164185600Y-112936400D02*
X162966400Y-111717200D01*
X164185600Y-114409600D02*
X164185600Y-112936400D01*
X164398600Y-114622600D02*
X164185600Y-114409600D01*
X149471200Y-115070000D02*
X149471200Y-116256000D01*
X149471200Y-116256000D02*
X149504400Y-116289200D01*
X146839940Y-88410160D02*
X147716240Y-88410160D01*
X147716240Y-88410160D02*
X148590000Y-87536400D01*
X151231600Y-85961600D02*
X151841198Y-85352002D01*
X151841198Y-85352002D02*
X152806402Y-85352002D01*
X159334200Y-102552880D02*
X160649920Y-102552880D01*
X160934400Y-102268400D02*
X160934400Y-100955220D01*
X160649920Y-102552880D02*
X160934400Y-102268400D01*
X152806400Y-117965600D02*
X152806400Y-118168800D01*
X152806400Y-118168800D02*
X152958800Y-118321200D01*
X165623600Y-114622600D02*
X166481400Y-114622600D01*
X166481400Y-114622600D02*
X166928800Y-115070000D01*
D29*
X164424400Y-116340000D02*
X164424400Y-117625200D01*
X164424400Y-117625200D02*
X164084000Y-117965600D01*
D28*
X167916860Y-101752780D02*
X166370000Y-101752780D01*
X166370000Y-101752780D02*
X164338000Y-101752780D01*
X164338000Y-101752780D02*
X162399980Y-101752780D01*
X162399980Y-101752780D02*
X161874200Y-101227000D01*
X161602420Y-100955220D02*
X160934400Y-100955220D01*
X160934400Y-100955220D02*
X159334200Y-100955220D01*
X161874200Y-101227000D02*
X161602420Y-100955220D01*
X138226800Y-122268400D02*
X138226800Y-123960000D01*
X138226800Y-123960000D02*
X138176000Y-124010800D01*
X139496800Y-118168800D02*
X139700000Y-117965600D01*
X150164800Y-117965600D02*
X152806400Y-117965600D01*
X152806400Y-117965600D02*
X164084000Y-117965600D01*
X139700000Y-117965600D02*
X150164800Y-117965600D01*
X143129000Y-122870340D02*
X144503140Y-122870340D01*
X148968980Y-123327020D02*
X148968980Y-122468980D01*
X148082000Y-124214000D02*
X148968980Y-123327020D01*
X145846800Y-124214000D02*
X148082000Y-124214000D01*
X144503140Y-122870340D02*
X145846800Y-124214000D01*
X140360400Y-122921140D02*
X143078200Y-122921140D01*
X143078200Y-122921140D02*
X143129000Y-122870340D01*
X138226800Y-122268400D02*
X139707660Y-122268400D01*
X139707660Y-122268400D02*
X140360400Y-122921140D01*
D29*
X164424400Y-116340000D02*
X164424400Y-115821800D01*
X164424400Y-115821800D02*
X165087300Y-115158900D01*
X165087300Y-115158900D02*
X165623600Y-114622600D01*
D28*
X156550400Y-84742400D02*
X156870400Y-85062400D01*
X152806402Y-85352002D02*
X153771600Y-86317200D01*
X153771600Y-86317200D02*
X153771600Y-91346400D01*
X153771600Y-91346400D02*
X152247600Y-92870400D01*
X156870400Y-86962400D02*
X158064240Y-86962400D01*
X158064240Y-86962400D02*
X158513780Y-87411940D01*
X153212800Y-84742400D02*
X153568400Y-84742400D01*
X155788400Y-86962400D02*
X156870400Y-86962400D01*
X153568400Y-84742400D02*
X155788400Y-86962400D01*
X147523200Y-84742400D02*
X153212800Y-84742400D01*
X146839940Y-85425660D02*
X147523200Y-84742400D01*
X156667200Y-89078000D02*
X155582800Y-89078000D01*
X154381200Y-92921200D02*
X155549600Y-94089600D01*
X154381200Y-90279600D02*
X154381200Y-92921200D01*
X155582800Y-89078000D02*
X154381200Y-90279600D01*
X165721600Y-109494000D02*
X165049200Y-109494000D01*
X166319200Y-110091600D02*
X165721600Y-109494000D01*
X162524400Y-115461200D02*
X162524400Y-116340000D01*
X163322000Y-114663600D02*
X162524400Y-115461200D01*
X164287200Y-99355020D02*
X164203380Y-99355020D01*
X165049200Y-109494000D02*
X165049200Y-108686800D01*
X165049200Y-108686800D02*
X164625200Y-108262800D01*
X146839940Y-87409400D02*
X146839940Y-85425660D01*
X158513600Y-89060400D02*
X156684800Y-89060400D01*
X156684800Y-89060400D02*
X156667200Y-89078000D01*
X158513780Y-87411940D02*
X158513780Y-89060220D01*
X158513780Y-89060220D02*
X158513600Y-89060400D01*
X159334200Y-100155120D02*
X163403280Y-100155120D01*
X164287200Y-99355020D02*
X165912800Y-99355020D01*
X165912800Y-99355020D02*
X167916860Y-99355020D01*
X163403280Y-100155120D02*
X164203380Y-99355020D01*
X159334200Y-100155120D02*
X160812480Y-100155120D01*
X160812480Y-100155120D02*
X161137600Y-99830000D01*
X159334200Y-101752780D02*
X158234380Y-101752780D01*
X158374080Y-100155120D02*
X159334200Y-100155120D01*
X158089600Y-100439600D02*
X158374080Y-100155120D01*
X158089600Y-101608000D02*
X158089600Y-100439600D01*
X158234380Y-101752780D02*
X158089600Y-101608000D01*
X147607200Y-115070000D02*
X147607200Y-116357600D01*
X147607200Y-116357600D02*
X146761200Y-117203600D01*
X136474200Y-120218400D02*
X136474200Y-119718200D01*
X136474200Y-119718200D02*
X138988800Y-117203600D01*
X161660800Y-117203600D02*
X162524400Y-116340000D01*
X146761200Y-117203600D02*
X161660800Y-117203600D01*
X138988800Y-117203600D02*
X146761200Y-117203600D01*
X136474200Y-120218400D02*
X136474200Y-119870600D01*
D29*
X162524400Y-116340000D02*
X162524400Y-115923400D01*
X162524400Y-115923400D02*
X161223600Y-114622600D01*
X162425200Y-108262800D02*
X162425200Y-107483200D01*
X163228020Y-106680380D02*
X163228020Y-105644060D01*
X162425200Y-107483200D02*
X163228020Y-106680380D01*
X162425200Y-108262800D02*
X159613600Y-108262800D01*
X159613600Y-108262800D02*
X159105600Y-107754800D01*
X146839940Y-90409140D02*
X148409660Y-90409140D01*
X148409660Y-90409140D02*
X148488400Y-90330400D01*
X161627820Y-97061400D02*
X161627820Y-95478980D01*
X161627820Y-95478980D02*
X161645600Y-95461200D01*
X160827720Y-98199320D02*
X161747200Y-99118800D01*
X161747200Y-99118800D02*
X162915600Y-99118800D01*
X160827720Y-97061400D02*
X160827720Y-98199320D01*
X159334200Y-103352980D02*
X161475420Y-103352980D01*
X161475420Y-103352980D02*
X162001200Y-102827200D01*
X164896800Y-96990280D02*
X164896800Y-93530800D01*
X162644000Y-91278000D02*
X164896800Y-93530800D01*
X164896800Y-96990280D02*
X164825680Y-97061400D01*
X155905200Y-90940000D02*
X156243200Y-91278000D01*
X156243200Y-91278000D02*
X156667200Y-91278000D01*
X165625780Y-96053020D02*
X165625780Y-97061400D01*
X146839940Y-91407360D02*
X148884640Y-91407360D01*
X150571200Y-88044400D02*
X151384000Y-88044400D01*
X149301200Y-89314400D02*
X150571200Y-88044400D01*
X149301200Y-90990800D02*
X149301200Y-89314400D01*
X148884640Y-91407360D02*
X149301200Y-90990800D01*
X165963600Y-95715200D02*
X165625780Y-96053020D01*
X166425880Y-96776920D02*
X167233600Y-95969200D01*
X166425880Y-96776920D02*
X166425880Y-97061400D01*
X146839940Y-89410920D02*
X148087080Y-89410920D01*
X151587200Y-87282400D02*
X152196800Y-86672800D01*
X150215600Y-87282400D02*
X151587200Y-87282400D01*
X148087080Y-89410920D02*
X150215600Y-87282400D01*
X163774120Y-98554920D02*
X163576000Y-98356800D01*
X167916860Y-98554920D02*
X163774120Y-98554920D01*
X150571200Y-92616400D02*
X150571200Y-89517600D01*
X152958800Y-95004000D02*
X150571200Y-92616400D01*
X158140400Y-95004000D02*
X152958800Y-95004000D01*
X159258000Y-96121600D02*
X158140400Y-95004000D01*
X146839940Y-92408120D02*
X149357080Y-92408120D01*
X149357080Y-92408120D02*
X149910800Y-91854400D01*
X149910800Y-91854400D02*
X149910800Y-90178000D01*
X149910800Y-90178000D02*
X150571200Y-89517600D01*
X160510220Y-87411940D02*
X160510220Y-88857020D01*
X160510220Y-88857020D02*
X160713600Y-89060400D01*
X159184340Y-105644060D02*
X160827720Y-105644060D01*
X158445200Y-106383200D02*
X159184340Y-105644060D01*
X166733220Y-100955220D02*
X167916860Y-100955220D01*
X166471600Y-100693600D02*
X166733220Y-100955220D01*
X145407200Y-115070000D02*
X144272000Y-115070000D01*
X144272000Y-115070000D02*
X144068800Y-115273200D01*
X152704800Y-115070000D02*
X151671200Y-115070000D01*
X152806400Y-115171600D02*
X152704800Y-115070000D01*
X159334200Y-104153080D02*
X164942520Y-104153080D01*
X165150800Y-103944800D02*
X164942520Y-104153080D01*
X165623600Y-113972600D02*
X167873800Y-113972600D01*
X168046400Y-112580800D02*
X166776400Y-111310800D01*
X168046400Y-113800000D02*
X168046400Y-112580800D01*
X167873800Y-113972600D02*
X168046400Y-113800000D01*
X166459600Y-110994000D02*
X165049200Y-110994000D01*
X166776400Y-111310800D02*
X166459600Y-110994000D01*
X164025580Y-97061400D02*
X164025580Y-95758380D01*
X162306000Y-94038800D02*
X158597600Y-94038800D01*
X164025580Y-95758380D02*
X162306000Y-94038800D01*
X157734000Y-94038800D02*
X158597600Y-94038800D01*
X158597600Y-94038800D02*
X158902400Y-94038800D01*
X155498800Y-91803600D02*
X157734000Y-94038800D01*
D28*
X138226800Y-120368400D02*
X138160800Y-120368400D01*
X138160800Y-120368400D02*
X136474200Y-122055000D01*
X136474200Y-122055000D02*
X136474200Y-122418400D01*
X140360400Y-120122060D02*
X138473140Y-120122060D01*
X138473140Y-120122060D02*
X138226800Y-120368400D01*
X143129000Y-120071260D02*
X140411200Y-120071260D01*
X140411200Y-120071260D02*
X140360400Y-120122060D01*
X146970000Y-122468980D02*
X145526720Y-122468980D01*
X145526720Y-122468980D02*
X143129000Y-120071260D01*
D29*
X163525200Y-110994000D02*
X163525200Y-111310800D01*
X164769800Y-111818800D02*
X165623600Y-112672600D01*
X164033200Y-111818800D02*
X164769800Y-111818800D01*
X163525200Y-111310800D02*
X164033200Y-111818800D01*
X161884400Y-110802800D02*
X163334000Y-110802800D01*
X163334000Y-110802800D02*
X163525200Y-110994000D01*
X162601000Y-112672600D02*
X161223600Y-112672600D01*
X162610800Y-112682400D02*
X162601000Y-112672600D01*
X162427920Y-97061400D02*
X162427920Y-98082480D01*
X162427920Y-98082480D02*
X162153600Y-98356800D01*
X166425880Y-105644060D02*
X166425880Y-108979080D01*
X154661080Y-118778400D02*
X152969480Y-120470000D01*
X164795200Y-118778400D02*
X154661080Y-118778400D01*
X168605200Y-114968400D02*
X164795200Y-118778400D01*
X168605200Y-111158400D02*
X168605200Y-114968400D01*
X166425880Y-108979080D02*
X168605200Y-111158400D01*
X163525200Y-107805600D02*
X163525200Y-107145200D01*
X163525200Y-109494000D02*
X163525200Y-107805600D01*
X163525200Y-107145200D02*
X164025580Y-106644820D01*
X164025580Y-106644820D02*
X164025580Y-105644060D01*
X159500000Y-114587400D02*
X159537400Y-114587400D01*
X159537400Y-114587400D02*
X160152200Y-113972600D01*
X160152200Y-113972600D02*
X161223600Y-113972600D01*
X161223600Y-113322600D02*
X159937000Y-113322600D01*
X159937000Y-113322600D02*
X159500000Y-112885600D01*
X158000000Y-114587400D02*
X158000000Y-114523200D01*
X158000000Y-114523200D02*
X154736800Y-111260000D01*
X148488400Y-105087800D02*
X148488400Y-106129200D01*
X148488400Y-106129200D02*
X157022800Y-114663600D01*
X160731200Y-116035200D02*
X160985200Y-115781200D01*
X157784800Y-116035200D02*
X160731200Y-116035200D01*
X157022800Y-115273200D02*
X157784800Y-116035200D01*
X157022800Y-114663600D02*
X157022800Y-115273200D01*
X158000000Y-112885600D02*
X157734000Y-112885600D01*
X157734000Y-112885600D02*
X149936200Y-105087800D01*
X149936200Y-105087800D02*
X148488400Y-105087800D01*
X166745800Y-113322600D02*
X165623600Y-113322600D01*
X167030400Y-113038000D02*
X166745800Y-113322600D01*
D28*
G36*
X169392700Y-118319391D02*
X167528299Y-121115993D01*
X164613493Y-124030799D01*
X161816892Y-125895200D01*
X135185309Y-125895200D01*
X132388707Y-124030799D01*
X128501117Y-120143209D01*
X127609500Y-118359975D01*
X127609500Y-116746400D01*
X138476132Y-116746400D01*
X136140112Y-119082420D01*
X136024200Y-119082420D01*
X135939258Y-119089194D01*
X135795188Y-119133810D01*
X135669251Y-119216796D01*
X135571419Y-119331583D01*
X135509440Y-119469080D01*
X135488220Y-119618400D01*
X135488220Y-120818400D01*
X135494994Y-120903342D01*
X135539610Y-121047412D01*
X135622596Y-121173349D01*
X135737383Y-121271181D01*
X135843281Y-121318916D01*
X135795188Y-121333810D01*
X135669251Y-121416796D01*
X135571419Y-121531583D01*
X135509440Y-121669080D01*
X135488220Y-121818400D01*
X135488220Y-123018400D01*
X135494994Y-123103342D01*
X135539610Y-123247412D01*
X135622596Y-123373349D01*
X135737383Y-123471181D01*
X135874880Y-123533160D01*
X136024200Y-123554380D01*
X136924200Y-123554380D01*
X137009142Y-123547606D01*
X137153212Y-123502990D01*
X137279149Y-123420004D01*
X137376981Y-123305217D01*
X137427408Y-123193347D01*
X137437481Y-123208422D01*
X137511777Y-123282719D01*
X137599140Y-123341093D01*
X137696213Y-123381302D01*
X137799264Y-123401800D01*
X138055350Y-123401800D01*
X138188700Y-123268450D01*
X138188700Y-122306500D01*
X138168700Y-122306500D01*
X138168700Y-122230300D01*
X138188700Y-122230300D01*
X138188700Y-122210300D01*
X138264900Y-122210300D01*
X138264900Y-122230300D01*
X138284900Y-122230300D01*
X138284900Y-122306500D01*
X138264900Y-122306500D01*
X138264900Y-123268450D01*
X138398250Y-123401800D01*
X138654336Y-123401800D01*
X138757387Y-123381302D01*
X138854460Y-123341093D01*
X138941823Y-123282719D01*
X139016119Y-123208422D01*
X139028170Y-123190386D01*
X139028170Y-123673446D01*
X139048668Y-123776497D01*
X139088877Y-123873570D01*
X139147251Y-123960933D01*
X139221548Y-124035229D01*
X139308911Y-124093603D01*
X139405983Y-124133812D01*
X139509035Y-124154310D01*
X140188950Y-124154310D01*
X140322300Y-124020960D01*
X140322300Y-122959240D01*
X140398500Y-122959240D01*
X140398500Y-124020960D01*
X140531850Y-124154310D01*
X141211765Y-124154310D01*
X141314817Y-124133812D01*
X141411889Y-124093603D01*
X141499252Y-124035229D01*
X141573549Y-123960933D01*
X141631923Y-123873570D01*
X141672132Y-123776497D01*
X141692630Y-123673446D01*
X141692630Y-123092590D01*
X141641830Y-123041790D01*
X141796770Y-123041790D01*
X141796770Y-123622646D01*
X141817268Y-123725697D01*
X141857477Y-123822770D01*
X141915851Y-123910133D01*
X141990148Y-123984429D01*
X142077511Y-124042803D01*
X142174583Y-124083012D01*
X142277635Y-124103510D01*
X142957550Y-124103510D01*
X143090900Y-123970160D01*
X143090900Y-122908440D01*
X143167100Y-122908440D01*
X143167100Y-123970160D01*
X143300450Y-124103510D01*
X143980365Y-124103510D01*
X144083417Y-124083012D01*
X144180489Y-124042803D01*
X144267852Y-123984429D01*
X144342149Y-123910133D01*
X144400523Y-123822770D01*
X144440732Y-123725697D01*
X144461230Y-123622646D01*
X144461230Y-123041790D01*
X144327880Y-122908440D01*
X143167100Y-122908440D01*
X143090900Y-122908440D01*
X141930120Y-122908440D01*
X141796770Y-123041790D01*
X141641830Y-123041790D01*
X141559280Y-122959240D01*
X140398500Y-122959240D01*
X140322300Y-122959240D01*
X140302300Y-122959240D01*
X140302300Y-122883040D01*
X140322300Y-122883040D01*
X140322300Y-121821320D01*
X140398500Y-121821320D01*
X140398500Y-122883040D01*
X141559280Y-122883040D01*
X141692630Y-122749690D01*
X141692630Y-122168834D01*
X141682526Y-122118034D01*
X141796770Y-122118034D01*
X141796770Y-122698890D01*
X141930120Y-122832240D01*
X143090900Y-122832240D01*
X143090900Y-121770520D01*
X142957550Y-121637170D01*
X142277635Y-121637170D01*
X142174583Y-121657668D01*
X142077511Y-121697877D01*
X141990148Y-121756251D01*
X141915851Y-121830547D01*
X141857477Y-121917910D01*
X141817268Y-122014983D01*
X141796770Y-122118034D01*
X141682526Y-122118034D01*
X141672132Y-122065783D01*
X141631923Y-121968710D01*
X141573549Y-121881347D01*
X141499252Y-121807051D01*
X141411889Y-121748677D01*
X141314817Y-121708468D01*
X141211765Y-121687970D01*
X140531850Y-121687970D01*
X140398500Y-121821320D01*
X140322300Y-121821320D01*
X140188950Y-121687970D01*
X139509035Y-121687970D01*
X139405983Y-121708468D01*
X139308911Y-121748677D01*
X139221548Y-121807051D01*
X139147251Y-121881347D01*
X139135200Y-121899383D01*
X139135200Y-121615865D01*
X139114702Y-121512813D01*
X139074493Y-121415741D01*
X139016119Y-121328378D01*
X139003220Y-121315479D01*
X139054581Y-121255217D01*
X139116560Y-121117720D01*
X139117356Y-121112116D01*
X139159966Y-121176779D01*
X139274753Y-121274611D01*
X139412250Y-121336590D01*
X139561570Y-121357810D01*
X141159230Y-121357810D01*
X141244172Y-121351036D01*
X141388242Y-121306420D01*
X141514179Y-121223434D01*
X141612011Y-121108647D01*
X141673990Y-120971150D01*
X141695210Y-120821830D01*
X141695210Y-120757060D01*
X141794190Y-120757060D01*
X141794190Y-120771030D01*
X141800964Y-120855972D01*
X141845580Y-121000042D01*
X141928566Y-121125979D01*
X142043353Y-121223811D01*
X142180850Y-121285790D01*
X142330170Y-121307010D01*
X143394882Y-121307010D01*
X143725042Y-121637170D01*
X143300450Y-121637170D01*
X143167100Y-121770520D01*
X143167100Y-122832240D01*
X144327880Y-122832240D01*
X144461230Y-122698890D01*
X144461230Y-122373358D01*
X145041786Y-122953914D01*
X145090769Y-122994149D01*
X145139266Y-123034843D01*
X145142425Y-123036580D01*
X145145212Y-123038869D01*
X145201076Y-123068823D01*
X145256555Y-123099323D01*
X145259989Y-123100412D01*
X145263170Y-123102118D01*
X145323756Y-123120641D01*
X145384134Y-123139794D01*
X145387720Y-123140196D01*
X145391167Y-123141250D01*
X145454190Y-123147652D01*
X145517145Y-123154713D01*
X145524191Y-123154762D01*
X145524326Y-123154776D01*
X145524452Y-123154764D01*
X145526720Y-123154780D01*
X146000741Y-123154780D01*
X146035901Y-123209338D01*
X146197494Y-123376672D01*
X146388511Y-123509432D01*
X146601677Y-123602562D01*
X146828872Y-123652514D01*
X147061443Y-123657386D01*
X147290531Y-123616992D01*
X147507410Y-123532870D01*
X147703819Y-123408225D01*
X147872277Y-123247804D01*
X147874990Y-123243957D01*
X148247885Y-123243957D01*
X148299569Y-123455165D01*
X148504827Y-123566811D01*
X148727922Y-123636269D01*
X148960280Y-123660869D01*
X149192974Y-123639664D01*
X149417059Y-123573470D01*
X149623924Y-123464832D01*
X149638391Y-123455165D01*
X149690075Y-123243957D01*
X148968980Y-122522862D01*
X148247885Y-123243957D01*
X147874990Y-123243957D01*
X147967383Y-123112984D01*
X147973128Y-123123924D01*
X147982795Y-123138391D01*
X148194003Y-123190075D01*
X148915098Y-122468980D01*
X148194003Y-121747885D01*
X147982795Y-121799569D01*
X147967774Y-121827185D01*
X147893671Y-121715652D01*
X147729758Y-121550591D01*
X147609214Y-121469283D01*
X147703819Y-121409245D01*
X147872277Y-121248824D01*
X147970206Y-121110002D01*
X148034881Y-121210358D01*
X148196474Y-121377692D01*
X148325287Y-121467219D01*
X148314036Y-121473128D01*
X148299569Y-121482795D01*
X148247885Y-121694003D01*
X148968980Y-122415098D01*
X149690075Y-121694003D01*
X149638391Y-121482795D01*
X149610666Y-121467714D01*
X149702799Y-121409245D01*
X149871257Y-121248824D01*
X149969186Y-121110002D01*
X150033861Y-121210358D01*
X150195454Y-121377692D01*
X150328226Y-121469971D01*
X150221099Y-121540072D01*
X150054897Y-121702829D01*
X149970874Y-121825541D01*
X149964832Y-121814036D01*
X149955165Y-121799569D01*
X149743957Y-121747885D01*
X149022862Y-122468980D01*
X149743957Y-123190075D01*
X149955165Y-123138391D01*
X149970257Y-123110644D01*
X150033861Y-123209338D01*
X150195454Y-123376672D01*
X150386471Y-123509432D01*
X150599637Y-123602562D01*
X150826832Y-123652514D01*
X151059403Y-123657386D01*
X151288491Y-123616992D01*
X151505370Y-123532870D01*
X151701779Y-123408225D01*
X151870237Y-123247804D01*
X151969493Y-123107100D01*
X152035381Y-123209338D01*
X152196974Y-123376672D01*
X152387991Y-123509432D01*
X152601157Y-123602562D01*
X152828352Y-123652514D01*
X153060923Y-123657386D01*
X153290011Y-123616992D01*
X153506890Y-123532870D01*
X153703299Y-123408225D01*
X153871757Y-123247804D01*
X153969686Y-123108982D01*
X154034361Y-123209338D01*
X154195954Y-123376672D01*
X154386971Y-123509432D01*
X154600137Y-123602562D01*
X154827332Y-123652514D01*
X155059903Y-123657386D01*
X155288991Y-123616992D01*
X155505870Y-123532870D01*
X155702279Y-123408225D01*
X155870737Y-123247804D01*
X155969993Y-123107100D01*
X156035881Y-123209338D01*
X156197474Y-123376672D01*
X156388491Y-123509432D01*
X156601657Y-123602562D01*
X156828852Y-123652514D01*
X157061423Y-123657386D01*
X157290511Y-123616992D01*
X157507390Y-123532870D01*
X157703799Y-123408225D01*
X157872257Y-123247804D01*
X157970186Y-123108982D01*
X158034861Y-123209338D01*
X158196454Y-123376672D01*
X158387471Y-123509432D01*
X158600637Y-123602562D01*
X158827832Y-123652514D01*
X159060403Y-123657386D01*
X159289491Y-123616992D01*
X159506370Y-123532870D01*
X159702779Y-123408225D01*
X159871237Y-123247804D01*
X160005328Y-123057719D01*
X160099943Y-122845208D01*
X160151480Y-122618367D01*
X160155190Y-122352669D01*
X160110007Y-122124478D01*
X160021362Y-121909408D01*
X159892631Y-121715652D01*
X159728718Y-121550591D01*
X159608174Y-121469283D01*
X159702779Y-121409245D01*
X159871237Y-121248824D01*
X160005328Y-121058739D01*
X160099943Y-120846228D01*
X160151480Y-120619387D01*
X160155190Y-120353689D01*
X160110007Y-120125498D01*
X160021362Y-119910428D01*
X159892631Y-119716672D01*
X159728718Y-119551611D01*
X159561470Y-119438800D01*
X164795200Y-119438800D01*
X164855934Y-119432845D01*
X164916682Y-119427530D01*
X164920014Y-119426562D01*
X164923472Y-119426223D01*
X164981876Y-119408590D01*
X165040452Y-119391572D01*
X165043537Y-119389973D01*
X165046859Y-119388970D01*
X165100696Y-119360345D01*
X165154880Y-119332258D01*
X165157595Y-119330091D01*
X165160660Y-119328461D01*
X165207918Y-119289918D01*
X165255608Y-119251848D01*
X165260438Y-119247084D01*
X165260540Y-119247001D01*
X165260618Y-119246907D01*
X165262173Y-119245373D01*
X169072174Y-115435373D01*
X169110899Y-115388228D01*
X169150105Y-115341504D01*
X169151777Y-115338462D01*
X169153982Y-115335778D01*
X169182807Y-115282020D01*
X169212197Y-115228559D01*
X169213247Y-115225248D01*
X169214888Y-115222188D01*
X169232711Y-115163891D01*
X169251169Y-115105705D01*
X169251557Y-115102250D01*
X169252571Y-115098932D01*
X169258732Y-115038283D01*
X169265536Y-114977621D01*
X169265583Y-114970833D01*
X169265596Y-114970706D01*
X169265585Y-114970588D01*
X169265600Y-114968400D01*
X169265600Y-111158400D01*
X169259645Y-111097666D01*
X169254330Y-111036918D01*
X169253362Y-111033586D01*
X169253023Y-111030128D01*
X169235385Y-110971710D01*
X169218372Y-110913149D01*
X169216774Y-110910066D01*
X169215770Y-110906741D01*
X169187135Y-110852886D01*
X169159058Y-110798720D01*
X169156891Y-110796005D01*
X169155261Y-110792940D01*
X169116718Y-110745682D01*
X169078648Y-110697992D01*
X169073884Y-110693162D01*
X169073801Y-110693060D01*
X169073707Y-110692982D01*
X169072173Y-110691427D01*
X167086280Y-108705534D01*
X167086280Y-106635197D01*
X167145361Y-106565877D01*
X167207340Y-106428380D01*
X167228560Y-106279060D01*
X167228560Y-105009060D01*
X167223650Y-104947488D01*
X167281860Y-104955760D01*
X168551860Y-104955760D01*
X168636802Y-104948986D01*
X168780872Y-104904370D01*
X168906809Y-104821384D01*
X169004641Y-104706597D01*
X169066620Y-104569100D01*
X169087840Y-104419780D01*
X169087840Y-103886380D01*
X169081066Y-103801438D01*
X169068004Y-103759260D01*
X169087840Y-103619680D01*
X169087840Y-103086280D01*
X169081066Y-103001338D01*
X169068004Y-102959160D01*
X169087840Y-102819580D01*
X169087840Y-102286180D01*
X169081066Y-102201238D01*
X169067969Y-102158946D01*
X169085260Y-102072016D01*
X169085260Y-101924230D01*
X168951910Y-101790880D01*
X168744351Y-101790880D01*
X168701180Y-101771420D01*
X168586567Y-101755132D01*
X168636802Y-101751126D01*
X168754490Y-101714680D01*
X168951910Y-101714680D01*
X169085260Y-101581330D01*
X169085260Y-101433544D01*
X169069223Y-101352921D01*
X169087840Y-101221920D01*
X169087840Y-100688520D01*
X169081066Y-100603578D01*
X169068004Y-100561400D01*
X169087840Y-100421820D01*
X169087840Y-99888420D01*
X169081066Y-99803478D01*
X169068004Y-99761300D01*
X169087840Y-99621720D01*
X169087840Y-99088320D01*
X169081066Y-99003378D01*
X169068004Y-98961200D01*
X169087840Y-98821620D01*
X169087840Y-98288220D01*
X169081066Y-98203278D01*
X169036450Y-98059208D01*
X168953464Y-97933271D01*
X168838677Y-97835439D01*
X168701180Y-97773460D01*
X168551860Y-97752240D01*
X167281860Y-97752240D01*
X167219923Y-97757179D01*
X167228560Y-97696400D01*
X167228560Y-96908186D01*
X167289839Y-96846908D01*
X167301154Y-96847145D01*
X167470395Y-96817303D01*
X167630616Y-96755158D01*
X167775715Y-96663075D01*
X167900164Y-96544563D01*
X167983519Y-96426400D01*
X169392700Y-96426400D01*
X169392700Y-118319391D01*
X169392700Y-118319391D01*
G37*
X169392700Y-118319391D02*
X167528299Y-121115993D01*
X164613493Y-124030799D01*
X161816892Y-125895200D01*
X135185309Y-125895200D01*
X132388707Y-124030799D01*
X128501117Y-120143209D01*
X127609500Y-118359975D01*
X127609500Y-116746400D01*
X138476132Y-116746400D01*
X136140112Y-119082420D01*
X136024200Y-119082420D01*
X135939258Y-119089194D01*
X135795188Y-119133810D01*
X135669251Y-119216796D01*
X135571419Y-119331583D01*
X135509440Y-119469080D01*
X135488220Y-119618400D01*
X135488220Y-120818400D01*
X135494994Y-120903342D01*
X135539610Y-121047412D01*
X135622596Y-121173349D01*
X135737383Y-121271181D01*
X135843281Y-121318916D01*
X135795188Y-121333810D01*
X135669251Y-121416796D01*
X135571419Y-121531583D01*
X135509440Y-121669080D01*
X135488220Y-121818400D01*
X135488220Y-123018400D01*
X135494994Y-123103342D01*
X135539610Y-123247412D01*
X135622596Y-123373349D01*
X135737383Y-123471181D01*
X135874880Y-123533160D01*
X136024200Y-123554380D01*
X136924200Y-123554380D01*
X137009142Y-123547606D01*
X137153212Y-123502990D01*
X137279149Y-123420004D01*
X137376981Y-123305217D01*
X137427408Y-123193347D01*
X137437481Y-123208422D01*
X137511777Y-123282719D01*
X137599140Y-123341093D01*
X137696213Y-123381302D01*
X137799264Y-123401800D01*
X138055350Y-123401800D01*
X138188700Y-123268450D01*
X138188700Y-122306500D01*
X138168700Y-122306500D01*
X138168700Y-122230300D01*
X138188700Y-122230300D01*
X138188700Y-122210300D01*
X138264900Y-122210300D01*
X138264900Y-122230300D01*
X138284900Y-122230300D01*
X138284900Y-122306500D01*
X138264900Y-122306500D01*
X138264900Y-123268450D01*
X138398250Y-123401800D01*
X138654336Y-123401800D01*
X138757387Y-123381302D01*
X138854460Y-123341093D01*
X138941823Y-123282719D01*
X139016119Y-123208422D01*
X139028170Y-123190386D01*
X139028170Y-123673446D01*
X139048668Y-123776497D01*
X139088877Y-123873570D01*
X139147251Y-123960933D01*
X139221548Y-124035229D01*
X139308911Y-124093603D01*
X139405983Y-124133812D01*
X139509035Y-124154310D01*
X140188950Y-124154310D01*
X140322300Y-124020960D01*
X140322300Y-122959240D01*
X140398500Y-122959240D01*
X140398500Y-124020960D01*
X140531850Y-124154310D01*
X141211765Y-124154310D01*
X141314817Y-124133812D01*
X141411889Y-124093603D01*
X141499252Y-124035229D01*
X141573549Y-123960933D01*
X141631923Y-123873570D01*
X141672132Y-123776497D01*
X141692630Y-123673446D01*
X141692630Y-123092590D01*
X141641830Y-123041790D01*
X141796770Y-123041790D01*
X141796770Y-123622646D01*
X141817268Y-123725697D01*
X141857477Y-123822770D01*
X141915851Y-123910133D01*
X141990148Y-123984429D01*
X142077511Y-124042803D01*
X142174583Y-124083012D01*
X142277635Y-124103510D01*
X142957550Y-124103510D01*
X143090900Y-123970160D01*
X143090900Y-122908440D01*
X143167100Y-122908440D01*
X143167100Y-123970160D01*
X143300450Y-124103510D01*
X143980365Y-124103510D01*
X144083417Y-124083012D01*
X144180489Y-124042803D01*
X144267852Y-123984429D01*
X144342149Y-123910133D01*
X144400523Y-123822770D01*
X144440732Y-123725697D01*
X144461230Y-123622646D01*
X144461230Y-123041790D01*
X144327880Y-122908440D01*
X143167100Y-122908440D01*
X143090900Y-122908440D01*
X141930120Y-122908440D01*
X141796770Y-123041790D01*
X141641830Y-123041790D01*
X141559280Y-122959240D01*
X140398500Y-122959240D01*
X140322300Y-122959240D01*
X140302300Y-122959240D01*
X140302300Y-122883040D01*
X140322300Y-122883040D01*
X140322300Y-121821320D01*
X140398500Y-121821320D01*
X140398500Y-122883040D01*
X141559280Y-122883040D01*
X141692630Y-122749690D01*
X141692630Y-122168834D01*
X141682526Y-122118034D01*
X141796770Y-122118034D01*
X141796770Y-122698890D01*
X141930120Y-122832240D01*
X143090900Y-122832240D01*
X143090900Y-121770520D01*
X142957550Y-121637170D01*
X142277635Y-121637170D01*
X142174583Y-121657668D01*
X142077511Y-121697877D01*
X141990148Y-121756251D01*
X141915851Y-121830547D01*
X141857477Y-121917910D01*
X141817268Y-122014983D01*
X141796770Y-122118034D01*
X141682526Y-122118034D01*
X141672132Y-122065783D01*
X141631923Y-121968710D01*
X141573549Y-121881347D01*
X141499252Y-121807051D01*
X141411889Y-121748677D01*
X141314817Y-121708468D01*
X141211765Y-121687970D01*
X140531850Y-121687970D01*
X140398500Y-121821320D01*
X140322300Y-121821320D01*
X140188950Y-121687970D01*
X139509035Y-121687970D01*
X139405983Y-121708468D01*
X139308911Y-121748677D01*
X139221548Y-121807051D01*
X139147251Y-121881347D01*
X139135200Y-121899383D01*
X139135200Y-121615865D01*
X139114702Y-121512813D01*
X139074493Y-121415741D01*
X139016119Y-121328378D01*
X139003220Y-121315479D01*
X139054581Y-121255217D01*
X139116560Y-121117720D01*
X139117356Y-121112116D01*
X139159966Y-121176779D01*
X139274753Y-121274611D01*
X139412250Y-121336590D01*
X139561570Y-121357810D01*
X141159230Y-121357810D01*
X141244172Y-121351036D01*
X141388242Y-121306420D01*
X141514179Y-121223434D01*
X141612011Y-121108647D01*
X141673990Y-120971150D01*
X141695210Y-120821830D01*
X141695210Y-120757060D01*
X141794190Y-120757060D01*
X141794190Y-120771030D01*
X141800964Y-120855972D01*
X141845580Y-121000042D01*
X141928566Y-121125979D01*
X142043353Y-121223811D01*
X142180850Y-121285790D01*
X142330170Y-121307010D01*
X143394882Y-121307010D01*
X143725042Y-121637170D01*
X143300450Y-121637170D01*
X143167100Y-121770520D01*
X143167100Y-122832240D01*
X144327880Y-122832240D01*
X144461230Y-122698890D01*
X144461230Y-122373358D01*
X145041786Y-122953914D01*
X145090769Y-122994149D01*
X145139266Y-123034843D01*
X145142425Y-123036580D01*
X145145212Y-123038869D01*
X145201076Y-123068823D01*
X145256555Y-123099323D01*
X145259989Y-123100412D01*
X145263170Y-123102118D01*
X145323756Y-123120641D01*
X145384134Y-123139794D01*
X145387720Y-123140196D01*
X145391167Y-123141250D01*
X145454190Y-123147652D01*
X145517145Y-123154713D01*
X145524191Y-123154762D01*
X145524326Y-123154776D01*
X145524452Y-123154764D01*
X145526720Y-123154780D01*
X146000741Y-123154780D01*
X146035901Y-123209338D01*
X146197494Y-123376672D01*
X146388511Y-123509432D01*
X146601677Y-123602562D01*
X146828872Y-123652514D01*
X147061443Y-123657386D01*
X147290531Y-123616992D01*
X147507410Y-123532870D01*
X147703819Y-123408225D01*
X147872277Y-123247804D01*
X147874990Y-123243957D01*
X148247885Y-123243957D01*
X148299569Y-123455165D01*
X148504827Y-123566811D01*
X148727922Y-123636269D01*
X148960280Y-123660869D01*
X149192974Y-123639664D01*
X149417059Y-123573470D01*
X149623924Y-123464832D01*
X149638391Y-123455165D01*
X149690075Y-123243957D01*
X148968980Y-122522862D01*
X148247885Y-123243957D01*
X147874990Y-123243957D01*
X147967383Y-123112984D01*
X147973128Y-123123924D01*
X147982795Y-123138391D01*
X148194003Y-123190075D01*
X148915098Y-122468980D01*
X148194003Y-121747885D01*
X147982795Y-121799569D01*
X147967774Y-121827185D01*
X147893671Y-121715652D01*
X147729758Y-121550591D01*
X147609214Y-121469283D01*
X147703819Y-121409245D01*
X147872277Y-121248824D01*
X147970206Y-121110002D01*
X148034881Y-121210358D01*
X148196474Y-121377692D01*
X148325287Y-121467219D01*
X148314036Y-121473128D01*
X148299569Y-121482795D01*
X148247885Y-121694003D01*
X148968980Y-122415098D01*
X149690075Y-121694003D01*
X149638391Y-121482795D01*
X149610666Y-121467714D01*
X149702799Y-121409245D01*
X149871257Y-121248824D01*
X149969186Y-121110002D01*
X150033861Y-121210358D01*
X150195454Y-121377692D01*
X150328226Y-121469971D01*
X150221099Y-121540072D01*
X150054897Y-121702829D01*
X149970874Y-121825541D01*
X149964832Y-121814036D01*
X149955165Y-121799569D01*
X149743957Y-121747885D01*
X149022862Y-122468980D01*
X149743957Y-123190075D01*
X149955165Y-123138391D01*
X149970257Y-123110644D01*
X150033861Y-123209338D01*
X150195454Y-123376672D01*
X150386471Y-123509432D01*
X150599637Y-123602562D01*
X150826832Y-123652514D01*
X151059403Y-123657386D01*
X151288491Y-123616992D01*
X151505370Y-123532870D01*
X151701779Y-123408225D01*
X151870237Y-123247804D01*
X151969493Y-123107100D01*
X152035381Y-123209338D01*
X152196974Y-123376672D01*
X152387991Y-123509432D01*
X152601157Y-123602562D01*
X152828352Y-123652514D01*
X153060923Y-123657386D01*
X153290011Y-123616992D01*
X153506890Y-123532870D01*
X153703299Y-123408225D01*
X153871757Y-123247804D01*
X153969686Y-123108982D01*
X154034361Y-123209338D01*
X154195954Y-123376672D01*
X154386971Y-123509432D01*
X154600137Y-123602562D01*
X154827332Y-123652514D01*
X155059903Y-123657386D01*
X155288991Y-123616992D01*
X155505870Y-123532870D01*
X155702279Y-123408225D01*
X155870737Y-123247804D01*
X155969993Y-123107100D01*
X156035881Y-123209338D01*
X156197474Y-123376672D01*
X156388491Y-123509432D01*
X156601657Y-123602562D01*
X156828852Y-123652514D01*
X157061423Y-123657386D01*
X157290511Y-123616992D01*
X157507390Y-123532870D01*
X157703799Y-123408225D01*
X157872257Y-123247804D01*
X157970186Y-123108982D01*
X158034861Y-123209338D01*
X158196454Y-123376672D01*
X158387471Y-123509432D01*
X158600637Y-123602562D01*
X158827832Y-123652514D01*
X159060403Y-123657386D01*
X159289491Y-123616992D01*
X159506370Y-123532870D01*
X159702779Y-123408225D01*
X159871237Y-123247804D01*
X160005328Y-123057719D01*
X160099943Y-122845208D01*
X160151480Y-122618367D01*
X160155190Y-122352669D01*
X160110007Y-122124478D01*
X160021362Y-121909408D01*
X159892631Y-121715652D01*
X159728718Y-121550591D01*
X159608174Y-121469283D01*
X159702779Y-121409245D01*
X159871237Y-121248824D01*
X160005328Y-121058739D01*
X160099943Y-120846228D01*
X160151480Y-120619387D01*
X160155190Y-120353689D01*
X160110007Y-120125498D01*
X160021362Y-119910428D01*
X159892631Y-119716672D01*
X159728718Y-119551611D01*
X159561470Y-119438800D01*
X164795200Y-119438800D01*
X164855934Y-119432845D01*
X164916682Y-119427530D01*
X164920014Y-119426562D01*
X164923472Y-119426223D01*
X164981876Y-119408590D01*
X165040452Y-119391572D01*
X165043537Y-119389973D01*
X165046859Y-119388970D01*
X165100696Y-119360345D01*
X165154880Y-119332258D01*
X165157595Y-119330091D01*
X165160660Y-119328461D01*
X165207918Y-119289918D01*
X165255608Y-119251848D01*
X165260438Y-119247084D01*
X165260540Y-119247001D01*
X165260618Y-119246907D01*
X165262173Y-119245373D01*
X169072174Y-115435373D01*
X169110899Y-115388228D01*
X169150105Y-115341504D01*
X169151777Y-115338462D01*
X169153982Y-115335778D01*
X169182807Y-115282020D01*
X169212197Y-115228559D01*
X169213247Y-115225248D01*
X169214888Y-115222188D01*
X169232711Y-115163891D01*
X169251169Y-115105705D01*
X169251557Y-115102250D01*
X169252571Y-115098932D01*
X169258732Y-115038283D01*
X169265536Y-114977621D01*
X169265583Y-114970833D01*
X169265596Y-114970706D01*
X169265585Y-114970588D01*
X169265600Y-114968400D01*
X169265600Y-111158400D01*
X169259645Y-111097666D01*
X169254330Y-111036918D01*
X169253362Y-111033586D01*
X169253023Y-111030128D01*
X169235385Y-110971710D01*
X169218372Y-110913149D01*
X169216774Y-110910066D01*
X169215770Y-110906741D01*
X169187135Y-110852886D01*
X169159058Y-110798720D01*
X169156891Y-110796005D01*
X169155261Y-110792940D01*
X169116718Y-110745682D01*
X169078648Y-110697992D01*
X169073884Y-110693162D01*
X169073801Y-110693060D01*
X169073707Y-110692982D01*
X169072173Y-110691427D01*
X167086280Y-108705534D01*
X167086280Y-106635197D01*
X167145361Y-106565877D01*
X167207340Y-106428380D01*
X167228560Y-106279060D01*
X167228560Y-105009060D01*
X167223650Y-104947488D01*
X167281860Y-104955760D01*
X168551860Y-104955760D01*
X168636802Y-104948986D01*
X168780872Y-104904370D01*
X168906809Y-104821384D01*
X169004641Y-104706597D01*
X169066620Y-104569100D01*
X169087840Y-104419780D01*
X169087840Y-103886380D01*
X169081066Y-103801438D01*
X169068004Y-103759260D01*
X169087840Y-103619680D01*
X169087840Y-103086280D01*
X169081066Y-103001338D01*
X169068004Y-102959160D01*
X169087840Y-102819580D01*
X169087840Y-102286180D01*
X169081066Y-102201238D01*
X169067969Y-102158946D01*
X169085260Y-102072016D01*
X169085260Y-101924230D01*
X168951910Y-101790880D01*
X168744351Y-101790880D01*
X168701180Y-101771420D01*
X168586567Y-101755132D01*
X168636802Y-101751126D01*
X168754490Y-101714680D01*
X168951910Y-101714680D01*
X169085260Y-101581330D01*
X169085260Y-101433544D01*
X169069223Y-101352921D01*
X169087840Y-101221920D01*
X169087840Y-100688520D01*
X169081066Y-100603578D01*
X169068004Y-100561400D01*
X169087840Y-100421820D01*
X169087840Y-99888420D01*
X169081066Y-99803478D01*
X169068004Y-99761300D01*
X169087840Y-99621720D01*
X169087840Y-99088320D01*
X169081066Y-99003378D01*
X169068004Y-98961200D01*
X169087840Y-98821620D01*
X169087840Y-98288220D01*
X169081066Y-98203278D01*
X169036450Y-98059208D01*
X168953464Y-97933271D01*
X168838677Y-97835439D01*
X168701180Y-97773460D01*
X168551860Y-97752240D01*
X167281860Y-97752240D01*
X167219923Y-97757179D01*
X167228560Y-97696400D01*
X167228560Y-96908186D01*
X167289839Y-96846908D01*
X167301154Y-96847145D01*
X167470395Y-96817303D01*
X167630616Y-96755158D01*
X167775715Y-96663075D01*
X167900164Y-96544563D01*
X167983519Y-96426400D01*
X169392700Y-96426400D01*
X169392700Y-118319391D01*
G36*
X160997583Y-111630581D02*
X161135080Y-111692560D01*
X161284400Y-111713780D01*
X162484400Y-111713780D01*
X162569342Y-111707006D01*
X162713412Y-111662390D01*
X162732936Y-111649524D01*
X162788383Y-111696781D01*
X162925880Y-111758760D01*
X163057992Y-111777535D01*
X163058227Y-111777773D01*
X163566226Y-112285773D01*
X163613366Y-112324495D01*
X163660096Y-112363705D01*
X163663138Y-112365377D01*
X163665822Y-112367582D01*
X163719599Y-112396417D01*
X163773041Y-112425797D01*
X163776350Y-112426847D01*
X163779411Y-112428488D01*
X163837735Y-112446320D01*
X163895895Y-112464769D01*
X163899348Y-112465156D01*
X163902667Y-112466171D01*
X163963322Y-112472332D01*
X164023979Y-112479136D01*
X164030767Y-112479183D01*
X164030894Y-112479196D01*
X164031012Y-112479185D01*
X164033200Y-112479200D01*
X164362620Y-112479200D01*
X164362620Y-112897600D01*
X164369394Y-112982542D01*
X164375959Y-113003740D01*
X164362620Y-113097600D01*
X164362620Y-113547600D01*
X164369394Y-113632542D01*
X164375959Y-113653740D01*
X164362620Y-113747600D01*
X164362620Y-114197600D01*
X164369394Y-114282542D01*
X164374413Y-114298748D01*
X164365200Y-114345064D01*
X164365200Y-114451150D01*
X164498550Y-114584500D01*
X164534484Y-114584500D01*
X164611783Y-114650381D01*
X164634675Y-114660700D01*
X164498550Y-114660700D01*
X164365200Y-114794050D01*
X164365200Y-114900136D01*
X164385698Y-115003187D01*
X164425907Y-115100260D01*
X164484281Y-115187623D01*
X164558578Y-115261919D01*
X164645941Y-115320293D01*
X164743013Y-115360502D01*
X164846065Y-115381000D01*
X165452150Y-115381000D01*
X165585500Y-115247650D01*
X165585500Y-114733580D01*
X165661700Y-114733580D01*
X165661700Y-115247650D01*
X165795050Y-115381000D01*
X166401135Y-115381000D01*
X166504187Y-115360502D01*
X166601259Y-115320293D01*
X166688622Y-115261919D01*
X166762919Y-115187623D01*
X166821293Y-115100260D01*
X166861502Y-115003187D01*
X166882000Y-114900136D01*
X166882000Y-114794050D01*
X166748652Y-114660702D01*
X166882000Y-114660702D01*
X166882000Y-114633000D01*
X167873800Y-114633000D01*
X167934534Y-114627045D01*
X167944800Y-114626147D01*
X167944800Y-114694853D01*
X164521654Y-118118000D01*
X154661080Y-118118000D01*
X154600391Y-118123951D01*
X154539599Y-118129269D01*
X154536263Y-118130238D01*
X154532808Y-118130577D01*
X154474420Y-118148206D01*
X154415829Y-118165228D01*
X154412746Y-118166826D01*
X154409421Y-118167830D01*
X154355605Y-118196444D01*
X154301400Y-118224541D01*
X154298681Y-118226711D01*
X154295620Y-118228339D01*
X154248420Y-118266835D01*
X154200672Y-118304951D01*
X154195836Y-118309721D01*
X154195740Y-118309799D01*
X154195666Y-118309888D01*
X154194107Y-118311426D01*
X153199319Y-119306215D01*
X153094069Y-119284610D01*
X152861453Y-119282986D01*
X152632952Y-119326575D01*
X152417269Y-119413717D01*
X152222619Y-119541092D01*
X152056417Y-119703849D01*
X151968459Y-119832308D01*
X151891631Y-119716672D01*
X151727718Y-119551611D01*
X151534866Y-119421530D01*
X151320420Y-119331386D01*
X151092549Y-119284610D01*
X150859933Y-119282986D01*
X150631432Y-119326575D01*
X150415749Y-119413717D01*
X150221099Y-119541092D01*
X150054897Y-119703849D01*
X149968228Y-119830425D01*
X149892651Y-119716672D01*
X149728738Y-119551611D01*
X149535886Y-119421530D01*
X149321440Y-119331386D01*
X149093569Y-119284610D01*
X148860953Y-119282986D01*
X148632452Y-119326575D01*
X148416769Y-119413717D01*
X148222119Y-119541092D01*
X148055917Y-119703849D01*
X147969248Y-119830425D01*
X147893671Y-119716672D01*
X147729758Y-119551611D01*
X147536906Y-119421530D01*
X147322460Y-119331386D01*
X147094589Y-119284610D01*
X146861973Y-119282986D01*
X146633472Y-119326575D01*
X146417789Y-119413717D01*
X146223139Y-119541092D01*
X146056937Y-119703849D01*
X145925513Y-119895789D01*
X145833874Y-120109600D01*
X145785509Y-120337138D01*
X145782261Y-120569737D01*
X145824254Y-120798537D01*
X145909888Y-121014824D01*
X146035901Y-121210358D01*
X146197494Y-121377692D01*
X146330266Y-121469971D01*
X146223139Y-121540072D01*
X146056937Y-121702829D01*
X146001920Y-121783180D01*
X145810788Y-121783180D01*
X144463810Y-120436202D01*
X144463810Y-119371490D01*
X144457036Y-119286548D01*
X144412420Y-119142478D01*
X144329434Y-119016541D01*
X144214647Y-118918709D01*
X144077150Y-118856730D01*
X143927830Y-118835510D01*
X142330170Y-118835510D01*
X142245228Y-118842284D01*
X142101158Y-118886900D01*
X141975221Y-118969886D01*
X141877389Y-119084673D01*
X141815410Y-119222170D01*
X141794190Y-119371490D01*
X141794190Y-119385460D01*
X141692273Y-119385460D01*
X141688436Y-119337348D01*
X141643820Y-119193278D01*
X141560834Y-119067341D01*
X141446047Y-118969509D01*
X141308550Y-118907530D01*
X141159230Y-118886310D01*
X139561570Y-118886310D01*
X139476628Y-118893084D01*
X139332558Y-118937700D01*
X139206621Y-119020686D01*
X139108789Y-119135473D01*
X139046810Y-119272970D01*
X139025590Y-119422290D01*
X139025590Y-119436260D01*
X139018434Y-119436260D01*
X139003404Y-119413451D01*
X138888617Y-119315619D01*
X138751120Y-119253640D01*
X138601800Y-119232420D01*
X137929848Y-119232420D01*
X139272868Y-117889400D01*
X161660800Y-117889400D01*
X161723863Y-117883217D01*
X161786954Y-117877697D01*
X161790417Y-117876691D01*
X161794006Y-117876339D01*
X161854691Y-117858017D01*
X161915484Y-117840355D01*
X161918682Y-117838698D01*
X161922138Y-117837654D01*
X161978053Y-117807923D01*
X162034314Y-117778761D01*
X162037137Y-117776507D01*
X162040316Y-117774817D01*
X162089378Y-117734803D01*
X162138916Y-117695257D01*
X162143935Y-117690308D01*
X162144038Y-117690224D01*
X162144117Y-117690128D01*
X162145734Y-117688534D01*
X162583288Y-117250980D01*
X163124400Y-117250980D01*
X163209342Y-117244206D01*
X163353412Y-117199590D01*
X163474716Y-117119657D01*
X163484378Y-117129319D01*
X163571741Y-117187693D01*
X163668813Y-117227902D01*
X163771865Y-117248400D01*
X164252950Y-117248400D01*
X164386300Y-117115050D01*
X164386300Y-116378100D01*
X164462500Y-116378100D01*
X164462500Y-117115050D01*
X164595850Y-117248400D01*
X165076935Y-117248400D01*
X165179987Y-117227902D01*
X165277059Y-117187693D01*
X165364422Y-117129319D01*
X165438719Y-117055023D01*
X165497093Y-116967660D01*
X165537302Y-116870587D01*
X165557800Y-116767536D01*
X165557800Y-116511450D01*
X165424450Y-116378100D01*
X164462500Y-116378100D01*
X164386300Y-116378100D01*
X164366300Y-116378100D01*
X164366300Y-116301900D01*
X164386300Y-116301900D01*
X164386300Y-115564950D01*
X164462500Y-115564950D01*
X164462500Y-116301900D01*
X165424450Y-116301900D01*
X165557800Y-116168550D01*
X165557800Y-115912464D01*
X165537302Y-115809413D01*
X165497093Y-115712340D01*
X165438719Y-115624977D01*
X165364422Y-115550681D01*
X165277059Y-115492307D01*
X165179987Y-115452098D01*
X165076935Y-115431600D01*
X164595850Y-115431600D01*
X164462500Y-115564950D01*
X164386300Y-115564950D01*
X164252950Y-115431600D01*
X163865826Y-115431600D01*
X163903398Y-115407756D01*
X164036866Y-115280656D01*
X164143105Y-115130053D01*
X164218068Y-114961682D01*
X164258901Y-114781958D01*
X164261840Y-114571448D01*
X164226042Y-114390654D01*
X164155809Y-114220256D01*
X164053817Y-114066745D01*
X163923949Y-113935968D01*
X163771154Y-113832907D01*
X163601251Y-113761486D01*
X163420711Y-113724426D01*
X163236411Y-113723140D01*
X163055372Y-113757675D01*
X162884488Y-113826716D01*
X162730269Y-113927635D01*
X162598588Y-114056585D01*
X162494462Y-114208657D01*
X162477327Y-114248635D01*
X162484580Y-114197600D01*
X162484580Y-113747600D01*
X162477806Y-113662658D01*
X162471241Y-113641460D01*
X162483985Y-113551787D01*
X162506541Y-113556746D01*
X162678354Y-113560345D01*
X162847595Y-113530503D01*
X163007816Y-113468358D01*
X163152915Y-113376275D01*
X163277364Y-113257763D01*
X163376425Y-113117336D01*
X163446323Y-112960342D01*
X163484397Y-112792761D01*
X163487138Y-112596474D01*
X163453758Y-112427896D01*
X163388271Y-112269012D01*
X163293170Y-112125873D01*
X163172077Y-112003932D01*
X163029606Y-111907834D01*
X162871183Y-111841239D01*
X162702841Y-111806684D01*
X162530994Y-111805484D01*
X162362187Y-111837686D01*
X162202849Y-111902062D01*
X162132201Y-111948293D01*
X162097920Y-111932840D01*
X161948600Y-111911620D01*
X160498600Y-111911620D01*
X160413658Y-111918394D01*
X160269588Y-111963010D01*
X160223200Y-111993577D01*
X160223200Y-111711200D01*
X160636935Y-111711200D01*
X160739987Y-111690702D01*
X160837059Y-111650493D01*
X160924422Y-111592119D01*
X160937321Y-111579220D01*
X160997583Y-111630581D01*
X160997583Y-111630581D01*
G37*
X160997583Y-111630581D02*
X161135080Y-111692560D01*
X161284400Y-111713780D01*
X162484400Y-111713780D01*
X162569342Y-111707006D01*
X162713412Y-111662390D01*
X162732936Y-111649524D01*
X162788383Y-111696781D01*
X162925880Y-111758760D01*
X163057992Y-111777535D01*
X163058227Y-111777773D01*
X163566226Y-112285773D01*
X163613366Y-112324495D01*
X163660096Y-112363705D01*
X163663138Y-112365377D01*
X163665822Y-112367582D01*
X163719599Y-112396417D01*
X163773041Y-112425797D01*
X163776350Y-112426847D01*
X163779411Y-112428488D01*
X163837735Y-112446320D01*
X163895895Y-112464769D01*
X163899348Y-112465156D01*
X163902667Y-112466171D01*
X163963322Y-112472332D01*
X164023979Y-112479136D01*
X164030767Y-112479183D01*
X164030894Y-112479196D01*
X164031012Y-112479185D01*
X164033200Y-112479200D01*
X164362620Y-112479200D01*
X164362620Y-112897600D01*
X164369394Y-112982542D01*
X164375959Y-113003740D01*
X164362620Y-113097600D01*
X164362620Y-113547600D01*
X164369394Y-113632542D01*
X164375959Y-113653740D01*
X164362620Y-113747600D01*
X164362620Y-114197600D01*
X164369394Y-114282542D01*
X164374413Y-114298748D01*
X164365200Y-114345064D01*
X164365200Y-114451150D01*
X164498550Y-114584500D01*
X164534484Y-114584500D01*
X164611783Y-114650381D01*
X164634675Y-114660700D01*
X164498550Y-114660700D01*
X164365200Y-114794050D01*
X164365200Y-114900136D01*
X164385698Y-115003187D01*
X164425907Y-115100260D01*
X164484281Y-115187623D01*
X164558578Y-115261919D01*
X164645941Y-115320293D01*
X164743013Y-115360502D01*
X164846065Y-115381000D01*
X165452150Y-115381000D01*
X165585500Y-115247650D01*
X165585500Y-114733580D01*
X165661700Y-114733580D01*
X165661700Y-115247650D01*
X165795050Y-115381000D01*
X166401135Y-115381000D01*
X166504187Y-115360502D01*
X166601259Y-115320293D01*
X166688622Y-115261919D01*
X166762919Y-115187623D01*
X166821293Y-115100260D01*
X166861502Y-115003187D01*
X166882000Y-114900136D01*
X166882000Y-114794050D01*
X166748652Y-114660702D01*
X166882000Y-114660702D01*
X166882000Y-114633000D01*
X167873800Y-114633000D01*
X167934534Y-114627045D01*
X167944800Y-114626147D01*
X167944800Y-114694853D01*
X164521654Y-118118000D01*
X154661080Y-118118000D01*
X154600391Y-118123951D01*
X154539599Y-118129269D01*
X154536263Y-118130238D01*
X154532808Y-118130577D01*
X154474420Y-118148206D01*
X154415829Y-118165228D01*
X154412746Y-118166826D01*
X154409421Y-118167830D01*
X154355605Y-118196444D01*
X154301400Y-118224541D01*
X154298681Y-118226711D01*
X154295620Y-118228339D01*
X154248420Y-118266835D01*
X154200672Y-118304951D01*
X154195836Y-118309721D01*
X154195740Y-118309799D01*
X154195666Y-118309888D01*
X154194107Y-118311426D01*
X153199319Y-119306215D01*
X153094069Y-119284610D01*
X152861453Y-119282986D01*
X152632952Y-119326575D01*
X152417269Y-119413717D01*
X152222619Y-119541092D01*
X152056417Y-119703849D01*
X151968459Y-119832308D01*
X151891631Y-119716672D01*
X151727718Y-119551611D01*
X151534866Y-119421530D01*
X151320420Y-119331386D01*
X151092549Y-119284610D01*
X150859933Y-119282986D01*
X150631432Y-119326575D01*
X150415749Y-119413717D01*
X150221099Y-119541092D01*
X150054897Y-119703849D01*
X149968228Y-119830425D01*
X149892651Y-119716672D01*
X149728738Y-119551611D01*
X149535886Y-119421530D01*
X149321440Y-119331386D01*
X149093569Y-119284610D01*
X148860953Y-119282986D01*
X148632452Y-119326575D01*
X148416769Y-119413717D01*
X148222119Y-119541092D01*
X148055917Y-119703849D01*
X147969248Y-119830425D01*
X147893671Y-119716672D01*
X147729758Y-119551611D01*
X147536906Y-119421530D01*
X147322460Y-119331386D01*
X147094589Y-119284610D01*
X146861973Y-119282986D01*
X146633472Y-119326575D01*
X146417789Y-119413717D01*
X146223139Y-119541092D01*
X146056937Y-119703849D01*
X145925513Y-119895789D01*
X145833874Y-120109600D01*
X145785509Y-120337138D01*
X145782261Y-120569737D01*
X145824254Y-120798537D01*
X145909888Y-121014824D01*
X146035901Y-121210358D01*
X146197494Y-121377692D01*
X146330266Y-121469971D01*
X146223139Y-121540072D01*
X146056937Y-121702829D01*
X146001920Y-121783180D01*
X145810788Y-121783180D01*
X144463810Y-120436202D01*
X144463810Y-119371490D01*
X144457036Y-119286548D01*
X144412420Y-119142478D01*
X144329434Y-119016541D01*
X144214647Y-118918709D01*
X144077150Y-118856730D01*
X143927830Y-118835510D01*
X142330170Y-118835510D01*
X142245228Y-118842284D01*
X142101158Y-118886900D01*
X141975221Y-118969886D01*
X141877389Y-119084673D01*
X141815410Y-119222170D01*
X141794190Y-119371490D01*
X141794190Y-119385460D01*
X141692273Y-119385460D01*
X141688436Y-119337348D01*
X141643820Y-119193278D01*
X141560834Y-119067341D01*
X141446047Y-118969509D01*
X141308550Y-118907530D01*
X141159230Y-118886310D01*
X139561570Y-118886310D01*
X139476628Y-118893084D01*
X139332558Y-118937700D01*
X139206621Y-119020686D01*
X139108789Y-119135473D01*
X139046810Y-119272970D01*
X139025590Y-119422290D01*
X139025590Y-119436260D01*
X139018434Y-119436260D01*
X139003404Y-119413451D01*
X138888617Y-119315619D01*
X138751120Y-119253640D01*
X138601800Y-119232420D01*
X137929848Y-119232420D01*
X139272868Y-117889400D01*
X161660800Y-117889400D01*
X161723863Y-117883217D01*
X161786954Y-117877697D01*
X161790417Y-117876691D01*
X161794006Y-117876339D01*
X161854691Y-117858017D01*
X161915484Y-117840355D01*
X161918682Y-117838698D01*
X161922138Y-117837654D01*
X161978053Y-117807923D01*
X162034314Y-117778761D01*
X162037137Y-117776507D01*
X162040316Y-117774817D01*
X162089378Y-117734803D01*
X162138916Y-117695257D01*
X162143935Y-117690308D01*
X162144038Y-117690224D01*
X162144117Y-117690128D01*
X162145734Y-117688534D01*
X162583288Y-117250980D01*
X163124400Y-117250980D01*
X163209342Y-117244206D01*
X163353412Y-117199590D01*
X163474716Y-117119657D01*
X163484378Y-117129319D01*
X163571741Y-117187693D01*
X163668813Y-117227902D01*
X163771865Y-117248400D01*
X164252950Y-117248400D01*
X164386300Y-117115050D01*
X164386300Y-116378100D01*
X164462500Y-116378100D01*
X164462500Y-117115050D01*
X164595850Y-117248400D01*
X165076935Y-117248400D01*
X165179987Y-117227902D01*
X165277059Y-117187693D01*
X165364422Y-117129319D01*
X165438719Y-117055023D01*
X165497093Y-116967660D01*
X165537302Y-116870587D01*
X165557800Y-116767536D01*
X165557800Y-116511450D01*
X165424450Y-116378100D01*
X164462500Y-116378100D01*
X164386300Y-116378100D01*
X164366300Y-116378100D01*
X164366300Y-116301900D01*
X164386300Y-116301900D01*
X164386300Y-115564950D01*
X164462500Y-115564950D01*
X164462500Y-116301900D01*
X165424450Y-116301900D01*
X165557800Y-116168550D01*
X165557800Y-115912464D01*
X165537302Y-115809413D01*
X165497093Y-115712340D01*
X165438719Y-115624977D01*
X165364422Y-115550681D01*
X165277059Y-115492307D01*
X165179987Y-115452098D01*
X165076935Y-115431600D01*
X164595850Y-115431600D01*
X164462500Y-115564950D01*
X164386300Y-115564950D01*
X164252950Y-115431600D01*
X163865826Y-115431600D01*
X163903398Y-115407756D01*
X164036866Y-115280656D01*
X164143105Y-115130053D01*
X164218068Y-114961682D01*
X164258901Y-114781958D01*
X164261840Y-114571448D01*
X164226042Y-114390654D01*
X164155809Y-114220256D01*
X164053817Y-114066745D01*
X163923949Y-113935968D01*
X163771154Y-113832907D01*
X163601251Y-113761486D01*
X163420711Y-113724426D01*
X163236411Y-113723140D01*
X163055372Y-113757675D01*
X162884488Y-113826716D01*
X162730269Y-113927635D01*
X162598588Y-114056585D01*
X162494462Y-114208657D01*
X162477327Y-114248635D01*
X162484580Y-114197600D01*
X162484580Y-113747600D01*
X162477806Y-113662658D01*
X162471241Y-113641460D01*
X162483985Y-113551787D01*
X162506541Y-113556746D01*
X162678354Y-113560345D01*
X162847595Y-113530503D01*
X163007816Y-113468358D01*
X163152915Y-113376275D01*
X163277364Y-113257763D01*
X163376425Y-113117336D01*
X163446323Y-112960342D01*
X163484397Y-112792761D01*
X163487138Y-112596474D01*
X163453758Y-112427896D01*
X163388271Y-112269012D01*
X163293170Y-112125873D01*
X163172077Y-112003932D01*
X163029606Y-111907834D01*
X162871183Y-111841239D01*
X162702841Y-111806684D01*
X162530994Y-111805484D01*
X162362187Y-111837686D01*
X162202849Y-111902062D01*
X162132201Y-111948293D01*
X162097920Y-111932840D01*
X161948600Y-111911620D01*
X160498600Y-111911620D01*
X160413658Y-111918394D01*
X160269588Y-111963010D01*
X160223200Y-111993577D01*
X160223200Y-111711200D01*
X160636935Y-111711200D01*
X160739987Y-111690702D01*
X160837059Y-111650493D01*
X160924422Y-111592119D01*
X160937321Y-111579220D01*
X160997583Y-111630581D01*
G36*
X165797067Y-100127600D02*
X165699977Y-100269397D01*
X165632277Y-100427351D01*
X165596548Y-100595447D01*
X165594148Y-100767282D01*
X165625171Y-100936310D01*
X165688433Y-101096093D01*
X165781527Y-101240545D01*
X165900905Y-101364165D01*
X166042020Y-101462243D01*
X166199498Y-101531043D01*
X166367341Y-101567946D01*
X166498345Y-101570690D01*
X166537729Y-101582731D01*
X166595915Y-101601189D01*
X166599370Y-101601577D01*
X166602688Y-101602591D01*
X166663337Y-101608752D01*
X166723999Y-101615556D01*
X166730787Y-101615603D01*
X166730914Y-101615616D01*
X166731032Y-101615605D01*
X166733220Y-101615620D01*
X166782750Y-101615620D01*
X166881810Y-101714680D01*
X167083734Y-101714680D01*
X167132540Y-101736680D01*
X167247153Y-101752968D01*
X167196918Y-101756974D01*
X167087432Y-101790880D01*
X166881810Y-101790880D01*
X166748460Y-101924230D01*
X166748460Y-102072016D01*
X166764707Y-102153697D01*
X166745880Y-102286180D01*
X166745880Y-102819580D01*
X166752654Y-102904522D01*
X166765716Y-102946700D01*
X166745880Y-103086280D01*
X166745880Y-103619680D01*
X166752654Y-103704622D01*
X166765716Y-103746800D01*
X166745880Y-103886380D01*
X166745880Y-104419780D01*
X166750790Y-104481352D01*
X166692580Y-104473080D01*
X166159180Y-104473080D01*
X166074238Y-104479854D01*
X166032060Y-104492916D01*
X165892480Y-104473080D01*
X165850578Y-104473080D01*
X165916425Y-104379736D01*
X165986323Y-104222742D01*
X166024397Y-104055161D01*
X166027138Y-103858874D01*
X165993758Y-103690296D01*
X165928271Y-103531412D01*
X165833170Y-103388273D01*
X165712077Y-103266332D01*
X165569606Y-103170234D01*
X165411183Y-103103639D01*
X165242841Y-103069084D01*
X165070994Y-103067884D01*
X164902187Y-103100086D01*
X164742849Y-103164462D01*
X164599050Y-103258562D01*
X164476267Y-103378800D01*
X164398292Y-103492680D01*
X162573132Y-103492680D01*
X162667764Y-103402563D01*
X162766825Y-103262136D01*
X162836723Y-103105142D01*
X162874797Y-102937561D01*
X162877538Y-102741274D01*
X162844158Y-102572696D01*
X162778671Y-102413812D01*
X162683570Y-102270673D01*
X162562477Y-102148732D01*
X162420006Y-102052634D01*
X162261583Y-101986039D01*
X162093241Y-101951484D01*
X161921394Y-101950284D01*
X161752587Y-101982486D01*
X161593249Y-102046862D01*
X161449450Y-102140962D01*
X161326667Y-102261200D01*
X161229577Y-102402997D01*
X161161877Y-102560951D01*
X161133899Y-102692580D01*
X160470850Y-102692580D01*
X160369250Y-102590980D01*
X160223200Y-102590980D01*
X160223200Y-102514780D01*
X160369250Y-102514780D01*
X160502600Y-102381430D01*
X160502600Y-102233644D01*
X160486353Y-102151963D01*
X160505180Y-102019480D01*
X160505180Y-101486080D01*
X160498406Y-101401138D01*
X160485616Y-101359839D01*
X160502600Y-101274456D01*
X160502600Y-101126670D01*
X160369250Y-100993320D01*
X160223200Y-100993320D01*
X160223200Y-100917120D01*
X160369250Y-100917120D01*
X160445450Y-100840920D01*
X163403280Y-100840920D01*
X163466343Y-100834737D01*
X163529434Y-100829217D01*
X163532897Y-100828211D01*
X163536486Y-100827859D01*
X163597171Y-100809537D01*
X163657964Y-100791875D01*
X163661162Y-100790218D01*
X163664618Y-100789174D01*
X163720533Y-100759443D01*
X163776794Y-100730281D01*
X163779617Y-100728027D01*
X163782796Y-100726337D01*
X163831858Y-100686323D01*
X163881396Y-100646777D01*
X163886415Y-100641828D01*
X163886518Y-100641744D01*
X163886597Y-100641648D01*
X163888214Y-100640054D01*
X164232590Y-100295678D01*
X164275829Y-100296584D01*
X164457334Y-100264580D01*
X164629165Y-100197931D01*
X164784778Y-100099176D01*
X164846058Y-100040820D01*
X165885684Y-100040820D01*
X165797067Y-100127600D01*
X165797067Y-100127600D01*
G37*
X165797067Y-100127600D02*
X165699977Y-100269397D01*
X165632277Y-100427351D01*
X165596548Y-100595447D01*
X165594148Y-100767282D01*
X165625171Y-100936310D01*
X165688433Y-101096093D01*
X165781527Y-101240545D01*
X165900905Y-101364165D01*
X166042020Y-101462243D01*
X166199498Y-101531043D01*
X166367341Y-101567946D01*
X166498345Y-101570690D01*
X166537729Y-101582731D01*
X166595915Y-101601189D01*
X166599370Y-101601577D01*
X166602688Y-101602591D01*
X166663337Y-101608752D01*
X166723999Y-101615556D01*
X166730787Y-101615603D01*
X166730914Y-101615616D01*
X166731032Y-101615605D01*
X166733220Y-101615620D01*
X166782750Y-101615620D01*
X166881810Y-101714680D01*
X167083734Y-101714680D01*
X167132540Y-101736680D01*
X167247153Y-101752968D01*
X167196918Y-101756974D01*
X167087432Y-101790880D01*
X166881810Y-101790880D01*
X166748460Y-101924230D01*
X166748460Y-102072016D01*
X166764707Y-102153697D01*
X166745880Y-102286180D01*
X166745880Y-102819580D01*
X166752654Y-102904522D01*
X166765716Y-102946700D01*
X166745880Y-103086280D01*
X166745880Y-103619680D01*
X166752654Y-103704622D01*
X166765716Y-103746800D01*
X166745880Y-103886380D01*
X166745880Y-104419780D01*
X166750790Y-104481352D01*
X166692580Y-104473080D01*
X166159180Y-104473080D01*
X166074238Y-104479854D01*
X166032060Y-104492916D01*
X165892480Y-104473080D01*
X165850578Y-104473080D01*
X165916425Y-104379736D01*
X165986323Y-104222742D01*
X166024397Y-104055161D01*
X166027138Y-103858874D01*
X165993758Y-103690296D01*
X165928271Y-103531412D01*
X165833170Y-103388273D01*
X165712077Y-103266332D01*
X165569606Y-103170234D01*
X165411183Y-103103639D01*
X165242841Y-103069084D01*
X165070994Y-103067884D01*
X164902187Y-103100086D01*
X164742849Y-103164462D01*
X164599050Y-103258562D01*
X164476267Y-103378800D01*
X164398292Y-103492680D01*
X162573132Y-103492680D01*
X162667764Y-103402563D01*
X162766825Y-103262136D01*
X162836723Y-103105142D01*
X162874797Y-102937561D01*
X162877538Y-102741274D01*
X162844158Y-102572696D01*
X162778671Y-102413812D01*
X162683570Y-102270673D01*
X162562477Y-102148732D01*
X162420006Y-102052634D01*
X162261583Y-101986039D01*
X162093241Y-101951484D01*
X161921394Y-101950284D01*
X161752587Y-101982486D01*
X161593249Y-102046862D01*
X161449450Y-102140962D01*
X161326667Y-102261200D01*
X161229577Y-102402997D01*
X161161877Y-102560951D01*
X161133899Y-102692580D01*
X160470850Y-102692580D01*
X160369250Y-102590980D01*
X160223200Y-102590980D01*
X160223200Y-102514780D01*
X160369250Y-102514780D01*
X160502600Y-102381430D01*
X160502600Y-102233644D01*
X160486353Y-102151963D01*
X160505180Y-102019480D01*
X160505180Y-101486080D01*
X160498406Y-101401138D01*
X160485616Y-101359839D01*
X160502600Y-101274456D01*
X160502600Y-101126670D01*
X160369250Y-100993320D01*
X160223200Y-100993320D01*
X160223200Y-100917120D01*
X160369250Y-100917120D01*
X160445450Y-100840920D01*
X163403280Y-100840920D01*
X163466343Y-100834737D01*
X163529434Y-100829217D01*
X163532897Y-100828211D01*
X163536486Y-100827859D01*
X163597171Y-100809537D01*
X163657964Y-100791875D01*
X163661162Y-100790218D01*
X163664618Y-100789174D01*
X163720533Y-100759443D01*
X163776794Y-100730281D01*
X163779617Y-100728027D01*
X163782796Y-100726337D01*
X163831858Y-100686323D01*
X163881396Y-100646777D01*
X163886415Y-100641828D01*
X163886518Y-100641744D01*
X163886597Y-100641648D01*
X163888214Y-100640054D01*
X164232590Y-100295678D01*
X164275829Y-100296584D01*
X164457334Y-100264580D01*
X164629165Y-100197931D01*
X164784778Y-100099176D01*
X164846058Y-100040820D01*
X165885684Y-100040820D01*
X165797067Y-100127600D01*
M02*
