G04 #@! TF.FileFunction,Legend,Bot*
%FSLAX46Y46*%
G04 Gerber Fmt 4.6, Leading zero omitted, Abs format (unit mm)*
G04 Created by KiCad (PCBNEW 4.0.6) date 08/07/17 19:53:01*
%MOMM*%
%LPD*%
G01*
G04 APERTURE LIST*
%ADD10C,0.100000*%
%ADD11C,0.150000*%
%ADD12C,0.508000*%
%ADD13C,0.120000*%
%ADD14C,0.203200*%
%ADD15C,0.254000*%
%ADD16C,0.127000*%
%ADD17C,0.025400*%
%ADD18C,0.101600*%
%ADD19C,0.050800*%
%ADD20R,1.850000X0.850000*%
%ADD21R,1.670000X0.933400*%
%ADD22R,0.933400X1.670000*%
%ADD23R,1.600000X1.150000*%
%ADD24R,1.300000X1.600000*%
%ADD25R,1.398220X1.299160*%
%ADD26R,1.150000X1.600000*%
%ADD27R,1.997660X1.799540*%
%ADD28R,1.600000X1.300000*%
%ADD29R,1.949400X0.999440*%
%ADD30R,2.198320X1.598880*%
%ADD31R,0.900000X1.300000*%
%ADD32R,1.300000X0.900000*%
%ADD33C,1.705560*%
G04 APERTURE END LIST*
D10*
D11*
X161748600Y-115322600D02*
X161748600Y-115147600D01*
X165098600Y-115322600D02*
X165098600Y-115072600D01*
X165098600Y-111972600D02*
X165098600Y-112222600D01*
X161748600Y-111972600D02*
X161748600Y-112222600D01*
X161748600Y-115322600D02*
X165098600Y-115322600D01*
X161748600Y-111972600D02*
X165098600Y-111972600D01*
X161748600Y-115147600D02*
X160498600Y-115147600D01*
D12*
X159725721Y-105291000D02*
G75*
G03X159725721Y-105291000I-35921J0D01*
G01*
D13*
X161284400Y-110202800D02*
X160584400Y-110202800D01*
X160584400Y-111402800D02*
X161284400Y-111402800D01*
X137154200Y-121818400D02*
X137154200Y-120818400D01*
X135794200Y-120818400D02*
X135794200Y-121818400D01*
X155987200Y-89678000D02*
X155987200Y-90678000D01*
X157347200Y-90678000D02*
X157347200Y-89678000D01*
D14*
X158112460Y-86700740D02*
X160898840Y-86700740D01*
X160898840Y-86700740D02*
X160898840Y-85479000D01*
X160898840Y-85479000D02*
X158112460Y-85479000D01*
X158112460Y-85479000D02*
X158112460Y-86700740D01*
D13*
X156270400Y-85662400D02*
X156270400Y-86362400D01*
X157470400Y-86362400D02*
X157470400Y-85662400D01*
D14*
X143891000Y-119057800D02*
X142367000Y-119057800D01*
X141122400Y-119108600D02*
X139598400Y-119108600D01*
D13*
X164025200Y-107582800D02*
X163025200Y-107582800D01*
X163025200Y-108942800D02*
X164025200Y-108942800D01*
X160113600Y-88380400D02*
X159113600Y-88380400D01*
X159113600Y-89740400D02*
X160113600Y-89740400D01*
X146007200Y-115750000D02*
X147007200Y-115750000D01*
X147007200Y-114390000D02*
X146007200Y-114390000D01*
X150071200Y-115750000D02*
X151071200Y-115750000D01*
X151071200Y-114390000D02*
X150071200Y-114390000D01*
D15*
X149758400Y-87409400D02*
X149758400Y-92489400D01*
X147599400Y-85631400D02*
X146202400Y-85631400D01*
X146202400Y-93251400D02*
X146202400Y-94267400D01*
X146202400Y-94267400D02*
X147599400Y-94267400D01*
X146202400Y-85631400D02*
X146202400Y-86647400D01*
D13*
X137626800Y-120968400D02*
X137626800Y-121668400D01*
X138826800Y-121668400D02*
X138826800Y-120968400D01*
X163824400Y-115740000D02*
X163124400Y-115740000D01*
X163124400Y-116940000D02*
X163824400Y-116940000D01*
X158250000Y-115267400D02*
X159250000Y-115267400D01*
X159250000Y-113907400D02*
X158250000Y-113907400D01*
X158250000Y-113565600D02*
X159250000Y-113565600D01*
X159250000Y-112205600D02*
X158250000Y-112205600D01*
X164205200Y-110744000D02*
X164205200Y-109744000D01*
X162845200Y-109744000D02*
X162845200Y-110744000D01*
X165729200Y-110744000D02*
X165729200Y-109744000D01*
X164369200Y-109744000D02*
X164369200Y-110744000D01*
D16*
X145700000Y-119200000D02*
X145700000Y-123645000D01*
X145700000Y-123645000D02*
X160305000Y-123645000D01*
X160305000Y-123645000D02*
X160305000Y-119200000D01*
X160305000Y-119200000D02*
X145700000Y-119200000D01*
X146335000Y-119200000D02*
X145700000Y-119835000D01*
X145700000Y-119835000D02*
X145700000Y-119200000D01*
X145700000Y-119200000D02*
X146335000Y-119200000D01*
D11*
X164185505Y-115699981D02*
X164185505Y-116509505D01*
X164137886Y-116604743D01*
X164090267Y-116652362D01*
X163995029Y-116699981D01*
X163804552Y-116699981D01*
X163709314Y-116652362D01*
X163661695Y-116604743D01*
X163614076Y-116509505D01*
X163614076Y-115699981D01*
X163233124Y-115699981D02*
X162614076Y-115699981D01*
X162947410Y-116080933D01*
X162804552Y-116080933D01*
X162709314Y-116128552D01*
X162661695Y-116176171D01*
X162614076Y-116271410D01*
X162614076Y-116509505D01*
X162661695Y-116604743D01*
X162709314Y-116652362D01*
X162804552Y-116699981D01*
X163090267Y-116699981D01*
X163185505Y-116652362D01*
X163233124Y-116604743D01*
D17*
X164075324Y-102329248D02*
X164075324Y-101922848D01*
X163649572Y-102290543D02*
X163668924Y-102309895D01*
X163726981Y-102329248D01*
X163765686Y-102329248D01*
X163823743Y-102309895D01*
X163862448Y-102271190D01*
X163881800Y-102232486D01*
X163901152Y-102155076D01*
X163901152Y-102097019D01*
X163881800Y-102019610D01*
X163862448Y-101980905D01*
X163823743Y-101942200D01*
X163765686Y-101922848D01*
X163726981Y-101922848D01*
X163668924Y-101942200D01*
X163649572Y-101961552D01*
X163262524Y-102329248D02*
X163494752Y-102329248D01*
X163378638Y-102329248D02*
X163378638Y-101922848D01*
X163417343Y-101980905D01*
X163456048Y-102019610D01*
X163494752Y-102038962D01*
X165456600Y-101324133D02*
X165263077Y-101324133D01*
X165495305Y-101440248D02*
X165359839Y-101033848D01*
X165224372Y-101440248D01*
X165146962Y-101033848D02*
X164914734Y-101033848D01*
X165030848Y-101440248D02*
X165030848Y-101033848D01*
X164779267Y-101440248D02*
X164779267Y-101033848D01*
X164643800Y-101324133D01*
X164508334Y-101033848D01*
X164508334Y-101440248D01*
X164314810Y-101227371D02*
X164179343Y-101227371D01*
X164121286Y-101440248D02*
X164314810Y-101440248D01*
X164314810Y-101033848D01*
X164121286Y-101033848D01*
X163734239Y-101053200D02*
X163772944Y-101033848D01*
X163831001Y-101033848D01*
X163889058Y-101053200D01*
X163927763Y-101091905D01*
X163947115Y-101130610D01*
X163966467Y-101208019D01*
X163966467Y-101266076D01*
X163947115Y-101343486D01*
X163927763Y-101382190D01*
X163889058Y-101420895D01*
X163831001Y-101440248D01*
X163792296Y-101440248D01*
X163734239Y-101420895D01*
X163714887Y-101401543D01*
X163714887Y-101266076D01*
X163792296Y-101266076D01*
X163560067Y-101324133D02*
X163366544Y-101324133D01*
X163598772Y-101440248D02*
X163463306Y-101033848D01*
X163327839Y-101440248D01*
X163231077Y-101033848D02*
X162979496Y-101033848D01*
X163114963Y-101188667D01*
X163056905Y-101188667D01*
X163018201Y-101208019D01*
X162998848Y-101227371D01*
X162979496Y-101266076D01*
X162979496Y-101362838D01*
X162998848Y-101401543D01*
X163018201Y-101420895D01*
X163056905Y-101440248D01*
X163173020Y-101440248D01*
X163211724Y-101420895D01*
X163231077Y-101401543D01*
X162824676Y-101072552D02*
X162805324Y-101053200D01*
X162766619Y-101033848D01*
X162669857Y-101033848D01*
X162631153Y-101053200D01*
X162611800Y-101072552D01*
X162592448Y-101111257D01*
X162592448Y-101149962D01*
X162611800Y-101208019D01*
X162844029Y-101440248D01*
X162592448Y-101440248D01*
X162360219Y-101208019D02*
X162398924Y-101188667D01*
X162418276Y-101169314D01*
X162437628Y-101130610D01*
X162437628Y-101111257D01*
X162418276Y-101072552D01*
X162398924Y-101053200D01*
X162360219Y-101033848D01*
X162282809Y-101033848D01*
X162244105Y-101053200D01*
X162224752Y-101072552D01*
X162205400Y-101111257D01*
X162205400Y-101130610D01*
X162224752Y-101169314D01*
X162244105Y-101188667D01*
X162282809Y-101208019D01*
X162360219Y-101208019D01*
X162398924Y-101227371D01*
X162418276Y-101246724D01*
X162437628Y-101285429D01*
X162437628Y-101362838D01*
X162418276Y-101401543D01*
X162398924Y-101420895D01*
X162360219Y-101440248D01*
X162282809Y-101440248D01*
X162244105Y-101420895D01*
X162224752Y-101401543D01*
X162205400Y-101362838D01*
X162205400Y-101285429D01*
X162224752Y-101246724D01*
X162244105Y-101227371D01*
X162282809Y-101208019D01*
X162031228Y-101440248D02*
X162031228Y-101033848D01*
X161876409Y-101033848D01*
X161837704Y-101053200D01*
X161818352Y-101072552D01*
X161799000Y-101111257D01*
X161799000Y-101169314D01*
X161818352Y-101208019D01*
X161837704Y-101227371D01*
X161876409Y-101246724D01*
X162031228Y-101246724D01*
D11*
X158256266Y-111261543D02*
X158303885Y-111309162D01*
X158446742Y-111356781D01*
X158541980Y-111356781D01*
X158684838Y-111309162D01*
X158780076Y-111213924D01*
X158827695Y-111118686D01*
X158875314Y-110928210D01*
X158875314Y-110785352D01*
X158827695Y-110594876D01*
X158780076Y-110499638D01*
X158684838Y-110404400D01*
X158541980Y-110356781D01*
X158446742Y-110356781D01*
X158303885Y-110404400D01*
X158256266Y-110452019D01*
X157399123Y-110690114D02*
X157399123Y-111356781D01*
X157637219Y-110309162D02*
X157875314Y-111023448D01*
X157256266Y-111023448D01*
X135476581Y-121151734D02*
X135476581Y-120675543D01*
X134476581Y-120675543D01*
X134571819Y-121437448D02*
X134524200Y-121485067D01*
X134476581Y-121580305D01*
X134476581Y-121818401D01*
X134524200Y-121913639D01*
X134571819Y-121961258D01*
X134667057Y-122008877D01*
X134762295Y-122008877D01*
X134905152Y-121961258D01*
X135476581Y-121389829D01*
X135476581Y-122008877D01*
D13*
X149803552Y-104573967D02*
X149346409Y-104573967D01*
X149574980Y-105373967D02*
X149574980Y-104573967D01*
X148965456Y-105373967D02*
X149041647Y-105335872D01*
X149079742Y-105297776D01*
X149117837Y-105221586D01*
X149117837Y-104993014D01*
X149079742Y-104916824D01*
X149041647Y-104878729D01*
X148965456Y-104840633D01*
X148851170Y-104840633D01*
X148774980Y-104878729D01*
X148736885Y-104916824D01*
X148698789Y-104993014D01*
X148698789Y-105221586D01*
X148736885Y-105297776D01*
X148774980Y-105335872D01*
X148851170Y-105373967D01*
X148965456Y-105373967D01*
X148013075Y-104840633D02*
X148013075Y-105373967D01*
X148355932Y-104840633D02*
X148355932Y-105259681D01*
X148317837Y-105335872D01*
X148241646Y-105373967D01*
X148127360Y-105373967D01*
X148051170Y-105335872D01*
X148013075Y-105297776D01*
X147289265Y-105335872D02*
X147365455Y-105373967D01*
X147517836Y-105373967D01*
X147594027Y-105335872D01*
X147632122Y-105297776D01*
X147670217Y-105221586D01*
X147670217Y-104993014D01*
X147632122Y-104916824D01*
X147594027Y-104878729D01*
X147517836Y-104840633D01*
X147365455Y-104840633D01*
X147289265Y-104878729D01*
X146946408Y-105373967D02*
X146946408Y-104573967D01*
X146603551Y-105373967D02*
X146603551Y-104954919D01*
X146641646Y-104878729D01*
X146717836Y-104840633D01*
X146832122Y-104840633D01*
X146908313Y-104878729D01*
X146946408Y-104916824D01*
D11*
X155570181Y-89985934D02*
X155093990Y-89652600D01*
X155570181Y-89414505D02*
X154570181Y-89414505D01*
X154570181Y-89795458D01*
X154617800Y-89890696D01*
X154665419Y-89938315D01*
X154760657Y-89985934D01*
X154903514Y-89985934D01*
X154998752Y-89938315D01*
X155046371Y-89890696D01*
X155093990Y-89795458D01*
X155093990Y-89414505D01*
X154903514Y-90843077D02*
X155570181Y-90843077D01*
X154522562Y-90604981D02*
X155236848Y-90366886D01*
X155236848Y-90985934D01*
D16*
X161807676Y-84271895D02*
X161807676Y-84929876D01*
X161768971Y-85007286D01*
X161730267Y-85045990D01*
X161652857Y-85084695D01*
X161498038Y-85084695D01*
X161420629Y-85045990D01*
X161381924Y-85007286D01*
X161343219Y-84929876D01*
X161343219Y-84271895D01*
X160530419Y-85084695D02*
X160994876Y-85084695D01*
X160762647Y-85084695D02*
X160762647Y-84271895D01*
X160840057Y-84388010D01*
X160917466Y-84465419D01*
X160994876Y-84504124D01*
X162847867Y-85658010D02*
X162847867Y-86045058D01*
X163080095Y-85580601D02*
X162267295Y-85851534D01*
X163080095Y-86122467D01*
X162267295Y-86277287D02*
X162267295Y-86741744D01*
X163080095Y-86509515D02*
X162267295Y-86509515D01*
X163041390Y-86973972D02*
X163080095Y-87090086D01*
X163080095Y-87283610D01*
X163041390Y-87361020D01*
X163002686Y-87399724D01*
X162925276Y-87438429D01*
X162847867Y-87438429D01*
X162770457Y-87399724D01*
X162731752Y-87361020D01*
X162693048Y-87283610D01*
X162654343Y-87128791D01*
X162615638Y-87051382D01*
X162576933Y-87012677D01*
X162499524Y-86973972D01*
X162422114Y-86973972D01*
X162344705Y-87012677D01*
X162306000Y-87051382D01*
X162267295Y-87128791D01*
X162267295Y-87322315D01*
X162306000Y-87438429D01*
X163080095Y-87786772D02*
X162267295Y-87786772D01*
X162654343Y-87786772D02*
X162654343Y-88251229D01*
X163080095Y-88251229D02*
X162267295Y-88251229D01*
X162847867Y-88599572D02*
X162847867Y-88986620D01*
X163080095Y-88522163D02*
X162267295Y-88793096D01*
X163080095Y-89064029D01*
X162344705Y-89296258D02*
X162306000Y-89334963D01*
X162267295Y-89412372D01*
X162267295Y-89605896D01*
X162306000Y-89683306D01*
X162344705Y-89722010D01*
X162422114Y-89760715D01*
X162499524Y-89760715D01*
X162615638Y-89722010D01*
X163080095Y-89257553D01*
X163080095Y-89760715D01*
X162267295Y-90263877D02*
X162267295Y-90341286D01*
X162306000Y-90418696D01*
X162344705Y-90457401D01*
X162422114Y-90496105D01*
X162576933Y-90534810D01*
X162770457Y-90534810D01*
X162925276Y-90496105D01*
X163002686Y-90457401D01*
X163041390Y-90418696D01*
X163080095Y-90341286D01*
X163080095Y-90263877D01*
X163041390Y-90186467D01*
X163002686Y-90147763D01*
X162925276Y-90109058D01*
X162770457Y-90070353D01*
X162576933Y-90070353D01*
X162422114Y-90109058D01*
X162344705Y-90147763D01*
X162306000Y-90186467D01*
X162267295Y-90263877D01*
X162538229Y-91231496D02*
X163080095Y-91231496D01*
X162228590Y-91037972D02*
X162809162Y-90844448D01*
X162809162Y-91347610D01*
X162847867Y-91618543D02*
X162847867Y-92005591D01*
X163080095Y-91541134D02*
X162267295Y-91812067D01*
X163080095Y-92083000D01*
D11*
X155652743Y-85947334D02*
X155700362Y-85899715D01*
X155747981Y-85756858D01*
X155747981Y-85661620D01*
X155700362Y-85518762D01*
X155605124Y-85423524D01*
X155509886Y-85375905D01*
X155319410Y-85328286D01*
X155176552Y-85328286D01*
X154986076Y-85375905D01*
X154890838Y-85423524D01*
X154795600Y-85518762D01*
X154747981Y-85661620D01*
X154747981Y-85756858D01*
X154795600Y-85899715D01*
X154843219Y-85947334D01*
X154747981Y-86852096D02*
X154747981Y-86375905D01*
X155224171Y-86328286D01*
X155176552Y-86375905D01*
X155128933Y-86471143D01*
X155128933Y-86709239D01*
X155176552Y-86804477D01*
X155224171Y-86852096D01*
X155319410Y-86899715D01*
X155557505Y-86899715D01*
X155652743Y-86852096D01*
X155700362Y-86804477D01*
X155747981Y-86709239D01*
X155747981Y-86471143D01*
X155700362Y-86375905D01*
X155652743Y-86328286D01*
D16*
X143571685Y-118665914D02*
X143600714Y-118694943D01*
X143687800Y-118723971D01*
X143745857Y-118723971D01*
X143832942Y-118694943D01*
X143891000Y-118636886D01*
X143920028Y-118578829D01*
X143949057Y-118462714D01*
X143949057Y-118375629D01*
X143920028Y-118259514D01*
X143891000Y-118201457D01*
X143832942Y-118143400D01*
X143745857Y-118114371D01*
X143687800Y-118114371D01*
X143600714Y-118143400D01*
X143571685Y-118172429D01*
X142991114Y-118723971D02*
X143339457Y-118723971D01*
X143165285Y-118723971D02*
X143165285Y-118114371D01*
X143223342Y-118201457D01*
X143281400Y-118259514D01*
X143339457Y-118288543D01*
X142613743Y-118114371D02*
X142555686Y-118114371D01*
X142497629Y-118143400D01*
X142468600Y-118172429D01*
X142439571Y-118230486D01*
X142410543Y-118346600D01*
X142410543Y-118491743D01*
X142439571Y-118607857D01*
X142468600Y-118665914D01*
X142497629Y-118694943D01*
X142555686Y-118723971D01*
X142613743Y-118723971D01*
X142671800Y-118694943D01*
X142700829Y-118665914D01*
X142729857Y-118607857D01*
X142758886Y-118491743D01*
X142758886Y-118346600D01*
X142729857Y-118230486D01*
X142700829Y-118172429D01*
X142671800Y-118143400D01*
X142613743Y-118114371D01*
X143988971Y-124997771D02*
X144337314Y-124997771D01*
X144163142Y-124997771D02*
X144163142Y-124388171D01*
X144221199Y-124475257D01*
X144279257Y-124533314D01*
X144337314Y-124562343D01*
X143611600Y-124388171D02*
X143553543Y-124388171D01*
X143495486Y-124417200D01*
X143466457Y-124446229D01*
X143437428Y-124504286D01*
X143408400Y-124620400D01*
X143408400Y-124765543D01*
X143437428Y-124881657D01*
X143466457Y-124939714D01*
X143495486Y-124968743D01*
X143553543Y-124997771D01*
X143611600Y-124997771D01*
X143669657Y-124968743D01*
X143698686Y-124939714D01*
X143727714Y-124881657D01*
X143756743Y-124765543D01*
X143756743Y-124620400D01*
X143727714Y-124504286D01*
X143698686Y-124446229D01*
X143669657Y-124417200D01*
X143611600Y-124388171D01*
X143031029Y-124388171D02*
X142972972Y-124388171D01*
X142914915Y-124417200D01*
X142885886Y-124446229D01*
X142856857Y-124504286D01*
X142827829Y-124620400D01*
X142827829Y-124765543D01*
X142856857Y-124881657D01*
X142885886Y-124939714D01*
X142914915Y-124968743D01*
X142972972Y-124997771D01*
X143031029Y-124997771D01*
X143089086Y-124968743D01*
X143118115Y-124939714D01*
X143147143Y-124881657D01*
X143176172Y-124765543D01*
X143176172Y-124620400D01*
X143147143Y-124504286D01*
X143118115Y-124446229D01*
X143089086Y-124417200D01*
X143031029Y-124388171D01*
X142305315Y-124591371D02*
X142305315Y-124997771D01*
X142566572Y-124591371D02*
X142566572Y-124910686D01*
X142537544Y-124968743D01*
X142479486Y-124997771D01*
X142392401Y-124997771D01*
X142334344Y-124968743D01*
X142305315Y-124939714D01*
X140828485Y-118691314D02*
X140857514Y-118720343D01*
X140944600Y-118749371D01*
X141002657Y-118749371D01*
X141089742Y-118720343D01*
X141147800Y-118662286D01*
X141176828Y-118604229D01*
X141205857Y-118488114D01*
X141205857Y-118401029D01*
X141176828Y-118284914D01*
X141147800Y-118226857D01*
X141089742Y-118168800D01*
X141002657Y-118139771D01*
X140944600Y-118139771D01*
X140857514Y-118168800D01*
X140828485Y-118197829D01*
X140247914Y-118749371D02*
X140596257Y-118749371D01*
X140422085Y-118749371D02*
X140422085Y-118139771D01*
X140480142Y-118226857D01*
X140538200Y-118284914D01*
X140596257Y-118313943D01*
X140015686Y-118197829D02*
X139986657Y-118168800D01*
X139928600Y-118139771D01*
X139783457Y-118139771D01*
X139725400Y-118168800D01*
X139696371Y-118197829D01*
X139667343Y-118255886D01*
X139667343Y-118313943D01*
X139696371Y-118401029D01*
X140044714Y-118749371D01*
X139667343Y-118749371D01*
X141057085Y-124540571D02*
X141057085Y-124946971D01*
X141202228Y-124308343D02*
X141347371Y-124743771D01*
X140969999Y-124743771D01*
X140737771Y-124888914D02*
X140708743Y-124917943D01*
X140737771Y-124946971D01*
X140766800Y-124917943D01*
X140737771Y-124888914D01*
X140737771Y-124946971D01*
X140505542Y-124337371D02*
X140099142Y-124337371D01*
X140360399Y-124946971D01*
X139605657Y-124540571D02*
X139605657Y-124946971D01*
X139866914Y-124540571D02*
X139866914Y-124859886D01*
X139837886Y-124917943D01*
X139779828Y-124946971D01*
X139692743Y-124946971D01*
X139634686Y-124917943D01*
X139605657Y-124888914D01*
D11*
X163666466Y-107064181D02*
X163999800Y-106587990D01*
X164237895Y-107064181D02*
X164237895Y-106064181D01*
X163856942Y-106064181D01*
X163761704Y-106111800D01*
X163714085Y-106159419D01*
X163666466Y-106254657D01*
X163666466Y-106397514D01*
X163714085Y-106492752D01*
X163761704Y-106540371D01*
X163856942Y-106587990D01*
X164237895Y-106587990D01*
X163285514Y-106159419D02*
X163237895Y-106111800D01*
X163142657Y-106064181D01*
X162904561Y-106064181D01*
X162809323Y-106111800D01*
X162761704Y-106159419D01*
X162714085Y-106254657D01*
X162714085Y-106349895D01*
X162761704Y-106492752D01*
X163333133Y-107064181D01*
X162714085Y-107064181D01*
X159780266Y-90962781D02*
X160113600Y-90486590D01*
X160351695Y-90962781D02*
X160351695Y-89962781D01*
X159970742Y-89962781D01*
X159875504Y-90010400D01*
X159827885Y-90058019D01*
X159780266Y-90153257D01*
X159780266Y-90296114D01*
X159827885Y-90391352D01*
X159875504Y-90438971D01*
X159970742Y-90486590D01*
X160351695Y-90486590D01*
X159446933Y-89962781D02*
X158827885Y-89962781D01*
X159161219Y-90343733D01*
X159018361Y-90343733D01*
X158923123Y-90391352D01*
X158875504Y-90438971D01*
X158827885Y-90534210D01*
X158827885Y-90772305D01*
X158875504Y-90867543D01*
X158923123Y-90915162D01*
X159018361Y-90962781D01*
X159304076Y-90962781D01*
X159399314Y-90915162D01*
X159446933Y-90867543D01*
X147232666Y-114099981D02*
X147566000Y-113623790D01*
X147804095Y-114099981D02*
X147804095Y-113099981D01*
X147423142Y-113099981D01*
X147327904Y-113147600D01*
X147280285Y-113195219D01*
X147232666Y-113290457D01*
X147232666Y-113433314D01*
X147280285Y-113528552D01*
X147327904Y-113576171D01*
X147423142Y-113623790D01*
X147804095Y-113623790D01*
X146327904Y-113099981D02*
X146804095Y-113099981D01*
X146851714Y-113576171D01*
X146804095Y-113528552D01*
X146708857Y-113480933D01*
X146470761Y-113480933D01*
X146375523Y-113528552D01*
X146327904Y-113576171D01*
X146280285Y-113671410D01*
X146280285Y-113909505D01*
X146327904Y-114004743D01*
X146375523Y-114052362D01*
X146470761Y-114099981D01*
X146708857Y-114099981D01*
X146804095Y-114052362D01*
X146851714Y-114004743D01*
X150280666Y-114049181D02*
X150614000Y-113572990D01*
X150852095Y-114049181D02*
X150852095Y-113049181D01*
X150471142Y-113049181D01*
X150375904Y-113096800D01*
X150328285Y-113144419D01*
X150280666Y-113239657D01*
X150280666Y-113382514D01*
X150328285Y-113477752D01*
X150375904Y-113525371D01*
X150471142Y-113572990D01*
X150852095Y-113572990D01*
X149423523Y-113049181D02*
X149614000Y-113049181D01*
X149709238Y-113096800D01*
X149756857Y-113144419D01*
X149852095Y-113287276D01*
X149899714Y-113477752D01*
X149899714Y-113858705D01*
X149852095Y-113953943D01*
X149804476Y-114001562D01*
X149709238Y-114049181D01*
X149518761Y-114049181D01*
X149423523Y-114001562D01*
X149375904Y-113953943D01*
X149328285Y-113858705D01*
X149328285Y-113620610D01*
X149375904Y-113525371D01*
X149423523Y-113477752D01*
X149518761Y-113430133D01*
X149709238Y-113430133D01*
X149804476Y-113477752D01*
X149852095Y-113525371D01*
X149899714Y-113620610D01*
D17*
X145528695Y-89221267D02*
X145548048Y-89279324D01*
X145548048Y-89376086D01*
X145528695Y-89414790D01*
X145509343Y-89434143D01*
X145470638Y-89453495D01*
X145431933Y-89453495D01*
X145393229Y-89434143D01*
X145373876Y-89414790D01*
X145354524Y-89376086D01*
X145335171Y-89298676D01*
X145315819Y-89259971D01*
X145296467Y-89240619D01*
X145257762Y-89221267D01*
X145219057Y-89221267D01*
X145180352Y-89240619D01*
X145161000Y-89259971D01*
X145141648Y-89298676D01*
X145141648Y-89395438D01*
X145161000Y-89453495D01*
X145548048Y-89821191D02*
X145548048Y-89627667D01*
X145141648Y-89627667D01*
X145180352Y-89937305D02*
X145161000Y-89956657D01*
X145141648Y-89995362D01*
X145141648Y-90092124D01*
X145161000Y-90130828D01*
X145180352Y-90150181D01*
X145219057Y-90169533D01*
X145257762Y-90169533D01*
X145315819Y-90150181D01*
X145548048Y-89917952D01*
X145548048Y-90169533D01*
D11*
X140215943Y-120657143D02*
X140263562Y-120609524D01*
X140311181Y-120466667D01*
X140311181Y-120371429D01*
X140263562Y-120228571D01*
X140168324Y-120133333D01*
X140073086Y-120085714D01*
X139882610Y-120038095D01*
X139739752Y-120038095D01*
X139549276Y-120085714D01*
X139454038Y-120133333D01*
X139358800Y-120228571D01*
X139311181Y-120371429D01*
X139311181Y-120466667D01*
X139358800Y-120609524D01*
X139406419Y-120657143D01*
X140311181Y-121609524D02*
X140311181Y-121038095D01*
X140311181Y-121323809D02*
X139311181Y-121323809D01*
X139454038Y-121228571D01*
X139549276Y-121133333D01*
X139596895Y-121038095D01*
X139311181Y-121942857D02*
X139311181Y-122561905D01*
X139692133Y-122228571D01*
X139692133Y-122371429D01*
X139739752Y-122466667D01*
X139787371Y-122514286D01*
X139882610Y-122561905D01*
X140120705Y-122561905D01*
X140215943Y-122514286D01*
X140263562Y-122466667D01*
X140311181Y-122371429D01*
X140311181Y-122085714D01*
X140263562Y-121990476D01*
X140215943Y-121942857D01*
X166587466Y-116773343D02*
X166635085Y-116820962D01*
X166777942Y-116868581D01*
X166873180Y-116868581D01*
X167016038Y-116820962D01*
X167111276Y-116725724D01*
X167158895Y-116630486D01*
X167206514Y-116440010D01*
X167206514Y-116297152D01*
X167158895Y-116106676D01*
X167111276Y-116011438D01*
X167016038Y-115916200D01*
X166873180Y-115868581D01*
X166777942Y-115868581D01*
X166635085Y-115916200D01*
X166587466Y-115963819D01*
X165635085Y-116868581D02*
X166206514Y-116868581D01*
X165920800Y-116868581D02*
X165920800Y-115868581D01*
X166016038Y-116011438D01*
X166111276Y-116106676D01*
X166206514Y-116154295D01*
X159494457Y-116487581D02*
X159827791Y-116011390D01*
X160065886Y-116487581D02*
X160065886Y-115487581D01*
X159684933Y-115487581D01*
X159589695Y-115535200D01*
X159542076Y-115582819D01*
X159494457Y-115678057D01*
X159494457Y-115820914D01*
X159542076Y-115916152D01*
X159589695Y-115963771D01*
X159684933Y-116011390D01*
X160065886Y-116011390D01*
X158542076Y-116487581D02*
X159113505Y-116487581D01*
X158827791Y-116487581D02*
X158827791Y-115487581D01*
X158923029Y-115630438D01*
X159018267Y-115725676D01*
X159113505Y-115773295D01*
X157684933Y-115820914D02*
X157684933Y-116487581D01*
X157923029Y-115439962D02*
X158161124Y-116154248D01*
X157542076Y-116154248D01*
X159392857Y-111887981D02*
X159726191Y-111411790D01*
X159964286Y-111887981D02*
X159964286Y-110887981D01*
X159583333Y-110887981D01*
X159488095Y-110935600D01*
X159440476Y-110983219D01*
X159392857Y-111078457D01*
X159392857Y-111221314D01*
X159440476Y-111316552D01*
X159488095Y-111364171D01*
X159583333Y-111411790D01*
X159964286Y-111411790D01*
X158440476Y-111887981D02*
X159011905Y-111887981D01*
X158726191Y-111887981D02*
X158726191Y-110887981D01*
X158821429Y-111030838D01*
X158916667Y-111126076D01*
X159011905Y-111173695D01*
X157535714Y-110887981D02*
X158011905Y-110887981D01*
X158059524Y-111364171D01*
X158011905Y-111316552D01*
X157916667Y-111268933D01*
X157678571Y-111268933D01*
X157583333Y-111316552D01*
X157535714Y-111364171D01*
X157488095Y-111459410D01*
X157488095Y-111697505D01*
X157535714Y-111792743D01*
X157583333Y-111840362D01*
X157678571Y-111887981D01*
X157916667Y-111887981D01*
X158011905Y-111840362D01*
X158059524Y-111792743D01*
X161831257Y-110289981D02*
X162164591Y-109813790D01*
X162402686Y-110289981D02*
X162402686Y-109289981D01*
X162021733Y-109289981D01*
X161926495Y-109337600D01*
X161878876Y-109385219D01*
X161831257Y-109480457D01*
X161831257Y-109623314D01*
X161878876Y-109718552D01*
X161926495Y-109766171D01*
X162021733Y-109813790D01*
X162402686Y-109813790D01*
X160878876Y-110289981D02*
X161450305Y-110289981D01*
X161164591Y-110289981D02*
X161164591Y-109289981D01*
X161259829Y-109432838D01*
X161355067Y-109528076D01*
X161450305Y-109575695D01*
X160402686Y-110289981D02*
X160212210Y-110289981D01*
X160116971Y-110242362D01*
X160069352Y-110194743D01*
X159974114Y-110051886D01*
X159926495Y-109861410D01*
X159926495Y-109480457D01*
X159974114Y-109385219D01*
X160021733Y-109337600D01*
X160116971Y-109289981D01*
X160307448Y-109289981D01*
X160402686Y-109337600D01*
X160450305Y-109385219D01*
X160497924Y-109480457D01*
X160497924Y-109718552D01*
X160450305Y-109813790D01*
X160402686Y-109861410D01*
X160307448Y-109909029D01*
X160116971Y-109909029D01*
X160021733Y-109861410D01*
X159974114Y-109813790D01*
X159926495Y-109718552D01*
X165742857Y-112347381D02*
X166076191Y-111871190D01*
X166314286Y-112347381D02*
X166314286Y-111347381D01*
X165933333Y-111347381D01*
X165838095Y-111395000D01*
X165790476Y-111442619D01*
X165742857Y-111537857D01*
X165742857Y-111680714D01*
X165790476Y-111775952D01*
X165838095Y-111823571D01*
X165933333Y-111871190D01*
X166314286Y-111871190D01*
X165361905Y-111442619D02*
X165314286Y-111395000D01*
X165219048Y-111347381D01*
X164980952Y-111347381D01*
X164885714Y-111395000D01*
X164838095Y-111442619D01*
X164790476Y-111537857D01*
X164790476Y-111633095D01*
X164838095Y-111775952D01*
X165409524Y-112347381D01*
X164790476Y-112347381D01*
X164171429Y-111347381D02*
X164076190Y-111347381D01*
X163980952Y-111395000D01*
X163933333Y-111442619D01*
X163885714Y-111537857D01*
X163838095Y-111728333D01*
X163838095Y-111966429D01*
X163885714Y-112156905D01*
X163933333Y-112252143D01*
X163980952Y-112299762D01*
X164076190Y-112347381D01*
X164171429Y-112347381D01*
X164266667Y-112299762D01*
X164314286Y-112252143D01*
X164361905Y-112156905D01*
X164409524Y-111966429D01*
X164409524Y-111728333D01*
X164361905Y-111537857D01*
X164314286Y-111442619D01*
X164266667Y-111395000D01*
X164171429Y-111347381D01*
D18*
X160068381Y-124077324D02*
X160068381Y-125105419D01*
X160007905Y-125226371D01*
X159947429Y-125286848D01*
X159826476Y-125347324D01*
X159584572Y-125347324D01*
X159463619Y-125286848D01*
X159403143Y-125226371D01*
X159342667Y-125105419D01*
X159342667Y-124077324D01*
X158798381Y-125286848D02*
X158616953Y-125347324D01*
X158314572Y-125347324D01*
X158193619Y-125286848D01*
X158133143Y-125226371D01*
X158072667Y-125105419D01*
X158072667Y-124984467D01*
X158133143Y-124863514D01*
X158193619Y-124803038D01*
X158314572Y-124742562D01*
X158556476Y-124682086D01*
X158677429Y-124621610D01*
X158737905Y-124561133D01*
X158798381Y-124440181D01*
X158798381Y-124319229D01*
X158737905Y-124198276D01*
X158677429Y-124137800D01*
X158556476Y-124077324D01*
X158254096Y-124077324D01*
X158072667Y-124137800D01*
X158435524Y-123895895D02*
X158435524Y-125528752D01*
X157588857Y-124198276D02*
X157528381Y-124137800D01*
X157407429Y-124077324D01*
X157105048Y-124077324D01*
X156984095Y-124137800D01*
X156923619Y-124198276D01*
X156863143Y-124319229D01*
X156863143Y-124440181D01*
X156923619Y-124621610D01*
X157649333Y-125347324D01*
X156863143Y-125347324D01*
D19*
X146638772Y-123900089D02*
X146605510Y-123933351D01*
X146572248Y-123999874D01*
X146572248Y-124166184D01*
X146605510Y-124232708D01*
X146638772Y-124265970D01*
X146705296Y-124299231D01*
X146771820Y-124299231D01*
X146871605Y-124265970D01*
X147270748Y-123866827D01*
X147270748Y-124299231D01*
X161240748Y-123105552D02*
X161240748Y-122706410D01*
X161240748Y-122905981D02*
X160542248Y-122905981D01*
X160642034Y-122839457D01*
X160708558Y-122772933D01*
X160741820Y-122706410D01*
X160775081Y-123704267D02*
X161240748Y-123704267D01*
X160508986Y-123537957D02*
X161007915Y-123371648D01*
X161007915Y-123804052D01*
X161304248Y-119806092D02*
X161304248Y-119406950D01*
X161304248Y-119606521D02*
X160605748Y-119606521D01*
X160705534Y-119539997D01*
X160772058Y-119473473D01*
X160805320Y-119406950D01*
X160605748Y-120038926D02*
X160605748Y-120471330D01*
X160871843Y-120238497D01*
X160871843Y-120338283D01*
X160905105Y-120404807D01*
X160938367Y-120438069D01*
X161004891Y-120471330D01*
X161171200Y-120471330D01*
X161237724Y-120438069D01*
X161270986Y-120404807D01*
X161304248Y-120338283D01*
X161304248Y-120138711D01*
X161270986Y-120072188D01*
X161237724Y-120038926D01*
%LPC*%
D20*
X161223600Y-114622600D03*
X161223600Y-113972600D03*
X161223600Y-113322600D03*
X161223600Y-112672600D03*
X165623600Y-112672600D03*
X165623600Y-113322600D03*
X165623600Y-113972600D03*
X165623600Y-114622600D03*
D21*
X159334200Y-104153080D03*
X159334200Y-103352980D03*
X159334200Y-102552880D03*
X159334200Y-101752780D03*
X159334200Y-100955220D03*
X159334200Y-100155120D03*
X159334200Y-99355020D03*
X159334200Y-98554920D03*
D22*
X160827720Y-97061400D03*
X161627820Y-97061400D03*
X162427920Y-97061400D03*
X163228020Y-97061400D03*
X164025580Y-97061400D03*
X164825680Y-97061400D03*
X165625780Y-97061400D03*
X166425880Y-97061400D03*
D21*
X167916860Y-98554920D03*
X167916860Y-99355020D03*
X167916860Y-100155120D03*
X167916860Y-100955220D03*
X167916860Y-101752780D03*
X167916860Y-102552880D03*
X167916860Y-103352980D03*
X167916860Y-104153080D03*
D22*
X166425880Y-105644060D03*
X165625780Y-105644060D03*
X164825680Y-105644060D03*
X164025580Y-105644060D03*
X163228020Y-105644060D03*
X162427920Y-105644060D03*
X161627820Y-105644060D03*
X160827720Y-105644060D03*
D23*
X161884400Y-110802800D03*
X159984400Y-110802800D03*
D24*
X136474200Y-120218400D03*
X136474200Y-122418400D03*
X156667200Y-91278000D03*
X156667200Y-89078000D03*
D25*
X160510220Y-87411940D03*
X158513780Y-87411940D03*
X159512000Y-84816060D03*
D26*
X156870400Y-85062400D03*
X156870400Y-86962400D03*
D27*
X143129000Y-120071260D03*
X143129000Y-122870340D03*
X140360400Y-120122060D03*
X140360400Y-122921140D03*
D28*
X162425200Y-108262800D03*
X164625200Y-108262800D03*
X158513600Y-89060400D03*
X160713600Y-89060400D03*
X147607200Y-115070000D03*
X145407200Y-115070000D03*
X151671200Y-115070000D03*
X149471200Y-115070000D03*
D29*
X146839940Y-87409400D03*
X146839940Y-88410160D03*
X146839940Y-89410920D03*
X146839940Y-90409140D03*
X146839940Y-91407360D03*
X146839940Y-92408120D03*
D30*
X149062440Y-86111460D03*
X149062440Y-93708600D03*
D26*
X138226800Y-120368400D03*
X138226800Y-122268400D03*
D23*
X164424400Y-116340000D03*
X162524400Y-116340000D03*
D31*
X159500000Y-114587400D03*
X158000000Y-114587400D03*
X159500000Y-112885600D03*
X158000000Y-112885600D03*
D32*
X163525200Y-109494000D03*
X163525200Y-110994000D03*
X165049200Y-109494000D03*
X165049200Y-110994000D03*
D33*
X146970000Y-120470000D03*
X146970000Y-122468980D03*
X148968980Y-120470000D03*
X148968980Y-122468980D03*
X150967960Y-120470000D03*
X150967960Y-122468980D03*
X152969480Y-120470000D03*
X152969480Y-122468980D03*
X154968460Y-120470000D03*
X154968460Y-122468980D03*
X156969980Y-120470000D03*
X156969980Y-122468980D03*
X158968960Y-120470000D03*
X158968960Y-122468980D03*
M02*
