G04 #@! TF.FileFunction,Copper,L1,Top,Signal*
%FSLAX46Y46*%
G04 Gerber Fmt 4.6, Leading zero omitted, Abs format (unit mm)*
G04 Created by KiCad (PCBNEW 4.0.6) date 08/27/17 10:57:48*
%MOMM*%
%LPD*%
G01*
G04 APERTURE LIST*
%ADD10C,0.100000*%
%ADD11R,2.000000X1.000000*%
%ADD12C,15.000000*%
%ADD13R,0.750000X1.200000*%
%ADD14R,1.200000X0.900000*%
%ADD15R,0.800000X0.800000*%
%ADD16R,0.500000X0.600000*%
%ADD17C,1.305560*%
%ADD18R,0.900000X0.500000*%
%ADD19C,0.812800*%
%ADD20C,0.685800*%
%ADD21C,0.304800*%
%ADD22C,0.254000*%
G04 APERTURE END LIST*
D10*
D11*
X154089600Y-94273200D03*
X154089600Y-93003200D03*
X154089600Y-91733200D03*
X154089600Y-90463200D03*
X154089600Y-89193200D03*
X154089600Y-87923200D03*
X154089600Y-86653200D03*
X154089600Y-85383200D03*
D12*
X148488400Y-105087800D03*
D13*
X156464000Y-92631600D03*
X156464000Y-94531600D03*
D14*
X158630800Y-89162000D03*
X156430800Y-89162000D03*
D15*
X145961200Y-114816000D03*
X147561200Y-114816000D03*
X149263200Y-114816000D03*
X150863200Y-114816000D03*
X158343600Y-90597200D03*
X158343600Y-92197200D03*
D16*
X167589200Y-101954800D03*
X167589200Y-100854800D03*
D17*
X146970000Y-120470000D03*
X146970000Y-122468980D03*
X148968980Y-120470000D03*
X148968980Y-122468980D03*
X150967960Y-120470000D03*
X150967960Y-122468980D03*
X152969480Y-120470000D03*
X152969480Y-122468980D03*
X154968460Y-120470000D03*
X154968460Y-122468980D03*
X156969980Y-120470000D03*
X156969980Y-122468980D03*
X158968960Y-120470000D03*
X158968960Y-122468980D03*
D16*
X160604200Y-101294400D03*
X160604200Y-100194400D03*
D18*
X167894000Y-113253200D03*
X167894000Y-114753200D03*
D19*
X159613600Y-92362400D03*
X149504400Y-116289200D03*
X148590000Y-87536400D03*
X151231600Y-85961600D03*
X152958800Y-118321200D03*
X166928800Y-115070000D03*
X166370000Y-101752780D03*
X161874200Y-101227000D03*
X138176000Y-124010800D03*
X139496800Y-118168800D03*
X152247600Y-92870400D03*
X155549600Y-94089600D03*
X166319200Y-110091600D03*
X163322000Y-114663600D03*
X164203380Y-99355020D03*
X161137600Y-99830000D03*
D20*
X159105600Y-107754800D03*
X148488400Y-90330400D03*
X161645600Y-95461200D03*
X162915600Y-99118800D03*
X162001200Y-102827200D03*
X162644000Y-91278000D03*
X155905200Y-90940000D03*
X151384000Y-88044400D03*
X165963600Y-95715200D03*
X167233600Y-95969200D03*
X152196800Y-86672800D03*
X163576000Y-98356800D03*
X159258000Y-96121600D03*
X150571200Y-89517600D03*
X158445200Y-106383200D03*
X166471600Y-100693600D03*
X144068800Y-115273200D03*
X152806400Y-115171600D03*
X166776400Y-111310800D03*
X165150800Y-103944800D03*
X155498800Y-91803600D03*
X162204400Y-98356800D03*
X162458400Y-109482000D03*
X154736800Y-111260000D03*
X167030400Y-113038000D03*
D21*
X161874200Y-101227000D02*
X161874200Y-101785800D01*
X154584400Y-116695600D02*
X154482800Y-116695600D01*
X154584400Y-116695600D02*
X152958800Y-118321200D01*
X154482800Y-116695600D02*
X160528000Y-110650400D01*
X160528000Y-103132000D02*
X160528000Y-110650400D01*
X161874200Y-101785800D02*
X160528000Y-103132000D01*
X158343600Y-92197200D02*
X159448400Y-92197200D01*
X159448400Y-92197200D02*
X159613600Y-92362400D01*
X166370000Y-101752780D02*
X166362380Y-101752780D01*
X163410800Y-92197200D02*
X158343600Y-92197200D01*
X165100000Y-93886400D02*
X163410800Y-92197200D01*
X165100000Y-100490400D02*
X165100000Y-93886400D01*
X166362380Y-101752780D02*
X165100000Y-100490400D01*
X149504400Y-116289200D02*
X151536400Y-118321200D01*
X151536400Y-118321200D02*
X152958800Y-118321200D01*
X148590000Y-87536400D02*
X149606000Y-86520400D01*
X149606000Y-86520400D02*
X150672800Y-86520400D01*
X150672800Y-86520400D02*
X151231600Y-85961600D01*
X152380400Y-93003200D02*
X154089600Y-93003200D01*
X152247600Y-92870400D02*
X152380400Y-93003200D01*
X156464000Y-92631600D02*
X156042400Y-92631600D01*
X155670800Y-93003200D02*
X154089600Y-93003200D01*
X156042400Y-92631600D02*
X155670800Y-93003200D01*
X158343600Y-92197200D02*
X156898400Y-92197200D01*
X156898400Y-92197200D02*
X156464000Y-92631600D01*
X167245600Y-114753200D02*
X167894000Y-114753200D01*
X166928800Y-115070000D02*
X167245600Y-114753200D01*
D22*
X167550400Y-114753200D02*
X167894000Y-114753200D01*
D21*
X167589200Y-101954800D02*
X166572020Y-101954800D01*
X166572020Y-101954800D02*
X166370000Y-101752780D01*
X160604200Y-101294400D02*
X161806800Y-101294400D01*
X161806800Y-101294400D02*
X161874200Y-101227000D01*
X138176000Y-124010800D02*
X138226800Y-123960000D01*
X138226800Y-123960000D02*
X138226800Y-119438800D01*
X138226800Y-119438800D02*
X139496800Y-118168800D01*
X155991600Y-94531600D02*
X156464000Y-94531600D01*
X155549600Y-94089600D02*
X155991600Y-94531600D01*
X156464000Y-94531600D02*
X158816000Y-94531600D01*
X158816000Y-94531600D02*
X159664400Y-93683200D01*
X159664400Y-93683200D02*
X162458400Y-93683200D01*
X162458400Y-93683200D02*
X164388800Y-95613600D01*
X164203380Y-109482000D02*
X165709600Y-109482000D01*
X165709600Y-109482000D02*
X166319200Y-110091600D01*
X164203380Y-99355020D02*
X164203380Y-109482000D01*
X164203380Y-109482000D02*
X164203380Y-113782220D01*
X164203380Y-113782220D02*
X163322000Y-114663600D01*
X164388800Y-95613600D02*
X163322000Y-94546800D01*
X164388800Y-99169600D02*
X164388800Y-95613600D01*
X164203380Y-99355020D02*
X164388800Y-99169600D01*
X154089600Y-94273200D02*
X156205600Y-94273200D01*
X156205600Y-94273200D02*
X156479200Y-94546800D01*
X161137600Y-99830000D02*
X160773200Y-100194400D01*
X160773200Y-100194400D02*
X160604200Y-100194400D01*
D22*
X159308800Y-107551600D02*
X159308800Y-98102800D01*
X159105600Y-107754800D02*
X159308800Y-107551600D01*
X149555200Y-91397200D02*
X148488400Y-90330400D01*
X149555200Y-92006800D02*
X149555200Y-91397200D01*
X153416000Y-95867600D02*
X149555200Y-92006800D01*
X157073600Y-95867600D02*
X153416000Y-95867600D01*
X159308800Y-98102800D02*
X157073600Y-95867600D01*
X161645600Y-95461200D02*
X161645600Y-97391600D01*
X161645600Y-97391600D02*
X160070800Y-98966400D01*
X160070800Y-99017200D02*
X159867600Y-99220400D01*
X159867600Y-99220400D02*
X159867600Y-109990000D01*
X159867600Y-109990000D02*
X153873200Y-115984400D01*
X153873200Y-115984400D02*
X150431600Y-115984400D01*
X149263200Y-114816000D02*
X150431600Y-115984400D01*
X160070800Y-98966400D02*
X160070800Y-99017200D01*
X147561200Y-114816000D02*
X149263200Y-114816000D01*
X162915600Y-99118800D02*
X162915600Y-99830000D01*
X162306000Y-123045600D02*
X162306000Y-122994800D01*
X162458400Y-122893200D02*
X162306000Y-123045600D01*
X162458400Y-114155600D02*
X162458400Y-122893200D01*
X163474400Y-113139600D02*
X162458400Y-114155600D01*
X163474400Y-100388800D02*
X163474400Y-113139600D01*
X162915600Y-99830000D02*
X163474400Y-100388800D01*
X157170680Y-124671200D02*
X154968460Y-122468980D01*
X160629600Y-124671200D02*
X157170680Y-124671200D01*
X162306000Y-122994800D02*
X160629600Y-124671200D01*
X162001200Y-102827200D02*
X161950400Y-102827200D01*
X161391600Y-103386000D02*
X161391600Y-122842400D01*
X161950400Y-102827200D02*
X161391600Y-103386000D01*
X158511800Y-124010800D02*
X156969980Y-122468980D01*
X160223200Y-124010800D02*
X158511800Y-124010800D01*
X161391600Y-122842400D02*
X160223200Y-124010800D01*
X156362400Y-91397200D02*
X155905200Y-90940000D01*
X162524800Y-91397200D02*
X156362400Y-91397200D01*
X162644000Y-91278000D02*
X162524800Y-91397200D01*
X154089600Y-90463200D02*
X155428400Y-90463200D01*
X155428400Y-90463200D02*
X155905200Y-90940000D01*
X157734000Y-87993600D02*
X160528000Y-87993600D01*
X157804400Y-87923200D02*
X157734000Y-87993600D01*
X160528000Y-87993600D02*
X166268400Y-93734000D01*
X154089600Y-87923200D02*
X157804400Y-87923200D01*
X151505200Y-87923200D02*
X154089600Y-87923200D01*
X151384000Y-88044400D02*
X151505200Y-87923200D01*
X166268400Y-95512000D02*
X166166800Y-95512000D01*
X166268400Y-93734000D02*
X166268400Y-95512000D01*
X166166800Y-95512000D02*
X165963600Y-95715200D01*
X164998400Y-91397200D02*
X165049200Y-91397200D01*
X165049200Y-91397200D02*
X167233600Y-93581600D01*
X155569200Y-86653200D02*
X155549600Y-86672800D01*
X155549600Y-86672800D02*
X160274000Y-86672800D01*
X160274000Y-86672800D02*
X164998400Y-91397200D01*
X167233600Y-95969200D02*
X167233600Y-93581600D01*
X154089600Y-86653200D02*
X155569200Y-86653200D01*
X152216400Y-86653200D02*
X154089600Y-86653200D01*
X152196800Y-86672800D02*
X152216400Y-86653200D01*
X162814000Y-97594800D02*
X162814000Y-95308800D01*
X163576000Y-98356800D02*
X162814000Y-97594800D01*
X160680400Y-94699200D02*
X159258000Y-96121600D01*
X162204400Y-94699200D02*
X160680400Y-94699200D01*
X162814000Y-95308800D02*
X162204400Y-94699200D01*
X155010400Y-89193200D02*
X154089600Y-89193200D01*
X154089600Y-89193200D02*
X156399600Y-89193200D01*
X156399600Y-89193200D02*
X156430800Y-89162000D01*
X150895600Y-89193200D02*
X154089600Y-89193200D01*
X150571200Y-89517600D02*
X150895600Y-89193200D01*
X154089600Y-85383200D02*
X152075600Y-85383200D01*
X158750000Y-106078400D02*
X158445200Y-106383200D01*
X158750000Y-98509200D02*
X158750000Y-106078400D01*
X156768800Y-96528000D02*
X158750000Y-98509200D01*
X153263600Y-96528000D02*
X156768800Y-96528000D01*
X146862800Y-90127200D02*
X153263600Y-96528000D01*
X146862800Y-85961600D02*
X146862800Y-90127200D01*
X147828000Y-84996400D02*
X146862800Y-85961600D01*
X151688800Y-84996400D02*
X147828000Y-84996400D01*
X152075600Y-85383200D02*
X151688800Y-84996400D01*
X167589200Y-100854800D02*
X166632800Y-100854800D01*
X166632800Y-100854800D02*
X166471600Y-100693600D01*
X144526000Y-114816000D02*
X145961200Y-114816000D01*
X144068800Y-115273200D02*
X144526000Y-114816000D01*
X150863200Y-114816000D02*
X152450800Y-114816000D01*
X152450800Y-114816000D02*
X152806400Y-115171600D01*
X158343600Y-90597200D02*
X158343600Y-89449200D01*
X158343600Y-89449200D02*
X158630800Y-89162000D01*
X167284400Y-106078400D02*
X165150800Y-103944800D01*
X167284400Y-110802800D02*
X167284400Y-106078400D01*
X167284400Y-110802800D02*
X166776400Y-111310800D01*
X154089600Y-91733200D02*
X155428400Y-91733200D01*
X155428400Y-91733200D02*
X155498800Y-91803600D01*
X162814000Y-100896800D02*
X162814000Y-109126400D01*
X162204400Y-98356800D02*
X162153600Y-98407600D01*
X162153600Y-98407600D02*
X162153600Y-100236400D01*
X162153600Y-100236400D02*
X162814000Y-100896800D01*
X162814000Y-109126400D02*
X162458400Y-109482000D01*
X154736800Y-111260000D02*
X148564600Y-105087800D01*
X148564600Y-105087800D02*
X148488400Y-105087800D01*
X167894000Y-113253200D02*
X167245600Y-113253200D01*
X167245600Y-113253200D02*
X167030400Y-113038000D01*
M02*
