M48
;DRILL file {KiCad 4.0.6} date 08/27/17 11:03:32
;FORMAT={-:-/ absolute / inch / decimal}
FMAT,2
INCH,TZ
T1C0.013
T2C0.016
T3C0.031
%
G90
G05
M72
T1
X5.672Y-4.5383
X5.846Y-3.5563
X5.928Y-3.5243
X5.96Y-3.4663
X5.992Y-3.4123
X6.016Y-4.5343
X6.092Y-4.3803
X6.122Y-3.6143
X6.138Y-3.5803
X6.238Y-4.1883
X6.264Y-4.2423
X6.27Y-3.7843
X6.364Y-3.7583
X6.378Y-4.0483
X6.386Y-3.8723
X6.396Y-4.3103
X6.4033Y-3.5936
X6.414Y-3.9023
X6.44Y-3.8723
X6.502Y-4.0923
X6.534Y-3.7683
X6.554Y-3.9643
X6.566Y-4.3823
X6.584Y-3.7783
T2
X5.44Y-4.8823
X5.492Y-4.6523
X5.85Y-3.4463
X5.886Y-4.5783
X5.954Y-3.3843
X5.994Y-3.6563
X6.022Y-4.6583
X6.124Y-3.7043
X6.284Y-3.6363
X6.344Y-3.9303
X6.373Y-3.9853
X6.43Y-4.5143
X6.4647Y-3.9116
X6.548Y-4.3343
X6.55Y-4.006
T3
X5.7862Y-4.7429
X5.7862Y-4.8216
X5.8649Y-4.7429
X5.8649Y-4.8216
X5.9436Y-4.7429
X5.9436Y-4.8216
X6.0224Y-4.7429
X6.0224Y-4.8216
X6.1011Y-4.7429
X6.1011Y-4.8216
X6.1799Y-4.7429
X6.1799Y-4.8216
X6.2586Y-4.7429
X6.2586Y-4.8216
T0
M30
